<?xml version="1.0" encoding="UTF-8" standalone="no"?>
<!-- Created with Inkscape (http://www.inkscape.org/) -->

<svg
   width="100mm"
   height="100mm"
   viewBox="0 0 100 100"
   version="1.1"
   id="svg1"
   xml:space="preserve"
   inkscape:version="1.3 (0e150ed6c4, 2023-07-21)"
   sodipodi:docname="hey.svg"
   xmlns:inkscape="http://www.inkscape.org/namespaces/inkscape"
   xmlns:sodipodi="http://sodipodi.sourceforge.net/DTD/sodipodi-0.dtd"
   xmlns="http://www.w3.org/2000/svg"
   xmlns:svg="http://www.w3.org/2000/svg"><sodipodi:namedview
     id="namedview1"
     pagecolor="#ffffff"
     bordercolor="#666666"
     borderopacity="1.0"
     inkscape:showpageshadow="2"
     inkscape:pageopacity="0.0"
     inkscape:pagecheckerboard="0"
     inkscape:deskcolor="#d1d1d1"
     inkscape:document-units="mm"
     inkscape:zoom="0.65323552"
     inkscape:cx="386.53746"
     inkscape:cy="535.7945"
     inkscape:window-width="1247"
     inkscape:window-height="1354"
     inkscape:window-x="0"
     inkscape:window-y="0"
     inkscape:window-maximized="1"
     inkscape:current-layer="layer1" /><defs
     id="defs1" /><g
     inkscape:label="Layer 1"
     inkscape:groupmode="layer"
     id="layer1"><path
       style="fill:none;stroke:#3c39f3;stroke-width:5.521;stroke-linecap:round;stroke-linejoin:round;stroke-dasharray:none;stroke-opacity:1"
       d="M 49.8226,96.5108 40.708728,96.27124 C 36.443184,96.442154 8.6542449,85.694946 8.6542449,57.555641 c 0,-7.620045 19.4842271,16.778615 19.4842271,16.778615 0,0 -21.1308419,-37.416977 -12.723177,-42.159943 3.884443,-3.783891 24.300047,32.15804 24.300047,32.15804 0,0 -20.496882,-31.820303 -12.400479,-50.762678 4.538272,-6.2143964 24.729914,41.493465 24.729914,41.493465 0,0 -16.859881,-41.71081 -2.303453,-51.9192084 C 56.200747,-4.3961668 76.402618,56.404513 73.464,69.369123 69.688529,88.850954 62.982268,77.727412 63.360358,69.740592 62.680039,27.769708 85.858458,30.598138 85.858458,30.598138 100.2427,31.289887 84.636291,79.277089 84.636291,79.277089 l 0.298021,-0.325103"
       id="path1"
       sodipodi:nodetypes="ccsccccccccccc" /></g></svg>
