<svg version="1" xmlns="http://www.w3.org/2000/svg" width="826.667" height="826.667" viewBox="0 0 620.000000 620.000000"><path d="M356 87.6c-75.6 9.8-130.1 34-164.2 72.9-28.6 32.7-44.8 76.4-47.4 128.2l-.7 12.8-8.1 4.4c-19.8 10.6-42.3 27.6-59.1 44.5-22.1 22.3-35.6 44.3-40.1 65.6-1.4 6.7-1.8 22.7-.8 29.2.8 4.9 4.2 5.6 10.4 2.2l4.6-2.5 8.4 3.9c17.4 8 36.7 13.4 60.5 16.8 9.2 1.4 19.3 1.8 43.8 1.8l31.7.1 4.4 5.5c4.4 5.7 12.5 12.7 13.9 12.2.5-.1.6.2.3.7-1.2 1.9 17.5 15.6 29.7 21.7 3.8 2 10.8 5.1 15.5 7 15 6.1 46.9 14.2 51.3 13.1 1-.3 2 0 2.1.5.2.5 3.6 1 7.6 1.1 3.9.1 7.2.6 7.2 1s1.7.7 3.8.7c2-.1 6.8.3 10.5.9 4.9.7 11.5.5 23-.5 52.1-4.5 93.3-14.8 126.7-31.6 18.7-9.4 31.2-18.1 44.1-30.8 27.2-26.7 41.7-59.9 47.3-108.3 5.5-46.9 4.3-78.3-4.4-112.7-14.4-57.3-47.9-104.6-92.8-131.1-23.1-13.6-50.8-23-81.4-27.4-10.3-1.5-41.2-2.7-47.8-1.9zm-60.6 106c39.9 10.2 68.4 66.4 82.1 161.7 5.2 36.3 6 45.7 5.9 66.7-.1 36-5.7 65-16.7 86.4-5.1 9.8-16.3 22.1-19.2 21-1.2-.5-1.6-.4-1.1.4s.2 1-.8.6c-.9-.3-1.6-1.1-1.6-1.8 0-.6-.4-.5-.9.3-.8 1.3-1.2 1.3-2.7 0-1.1-.9-1.5-.9-1-.2.4.7.2 1.3-.3 1.3-.6 0-1.1-.6-1.1-1.3 0-.7-.3-.8-.8-.2-.8 1.2-4.2 1.3-6 .1-1.6-1-6.3-1.6-5.8-.7.2.3-1.4.6-3.5.6-2.1.1-3.9-.3-3.9-.8 0-.4.4-.6.9-.2.5.3 1.2.1 1.5-.4.7-1-2-.9-3 .2-1.1 1.1-3.6.8-2.9-.3.4-.6-.3-.9-1.7-.6-1.3.2-2.9-.2-3.7-.8-1.1-.8-1.3-.8-.8.1.5.7 0 .9-1.3.6-1.1-.3-2-.9-2-1.3s-1.8-.6-4.1-.5c-2.7.1-4.2-.2-4.6-1.1-.3-.8-.9-1.4-1.5-1.4-.5 0-.6.4-.3 1 .3.5.1 1-.4 1-.6 0-1.1-.5-1.1-1.1 0-.5-.5-.7-1.2-.3-.8.5-.9.2-.4-1.2.4-1 .4-1.5 0-1.1-.4.4-1.4.1-2.3-.6-1.4-1.1-1.4-1-.2.6 1.4 1.7 1.3 1.7-1.5.5-1.6-.7-3.2-1.7-3.6-2.3-.5-.6-.8-.5-.8.3 0 .9-1 .6-3.2-.9-1.7-1.3-2.8-1.8-2.5-1.2.4.7.3 1.4-.2 1.7-.5.3-1.1-.1-1.4-.9-.4-.8-1.5-1.2-2.5-1-1.1.2-2.9-.5-4.1-1.6-2.2-2-3.6-2.5-2.6-.9.3.6-.1.7-1 .4-.9-.4-1.4-1.3-1.1-2.1.4-1.1.1-1.1-1.4-.3-1.6.9-1.8.8-1.4-.5.4-.9.3-1.5-.2-1.4-2.8.5-5.4-.2-4.8-1.3.5-.7.2-.9-.9-.5-.9.3-1.8-.1-2.1-1-.5-1.2-.9-1.3-2-.4-1.1 1-1.6.8-2.1-.9-.6-1.8-.9-1.9-2.3-.8-.9.7-1.3.8-1.1.3.3-.6-.2-1.8-1.3-2.8-1.7-1.6-1.8-1.6-1.9 0 0 1.4-.2 1.4-.9-.3-.5-1.2-1.4-2.5-2.1-3-.8-.4-1-.3-.5.4 1.2 2-.9 1.3-2.4-.8-1.4-2-3.7-2.9-2.5-1 .3.6-.1.7-1 .4-.9-.4-1.4-1.3-1.1-2 .3-.8 0-1.1-1-.7-.7.3-1.4 0-1.4-.6s-.3-1-.7-1c-2 .3-3.4-.2-2.8-1.1.3-.6-.3-1-1.4-1-1.9 0-2.6-1.1-2.2-3.3.1-.5-.3-.6-.9-.2-.6.3-.7 1.2-.3 1.8.4.7-.5.1-2-1.3-1.5-1.4-2.7-3.2-2.7-4 0-1.3-.1-1.3-1 0-.6 1-1 1.1-1 .2 0-.6-.7-1.2-1.5-1.2-2.9 0-1.5-1.7 2.4-2.9 5.2-1.5 8.7-5.9 10.1-12.4.7-3.6 1-22.1.8-57.3l-.3-51.9-4.5-8.5c-2.4-4.7-9.2-14.8-15-22.6-16-21.3-18.5-28.3-18.5-52.9 0-14 .3-16.9 2.3-23.5 10.2-32.5 36.6-53 76.7-59.6 9-1.5 19.1-1 27.9 1.2zm152.2 34.5c.8 1.4 2.6 1 1.8-.4-.4-.6.2-.4 1.3.6 1.2 1 2.7 1.9 3.5 2.1 2 .3 6.8 4.8 6.2 5.8-.3.4 0 .8.7.8s.9.3.6.7c-.4.3.1 1.2 1.1 2 .9.8 1.2 1.2.5.9-1.3-.7-1.1 1.6.3 3.5 1.4 1.8 1.1 6.4-.6 8.4-1 1.2-1 1.5.1 1.5.9.1.8.5-.5 1.5-1.1.8-1.7 1.5-1.3 1.5.5 0 .2.6-.5 1.4-.7.8-1.6 1.2-2 1-.4-.3-.5.4-.3 1.5.3 1.5 0 1.8-1.2 1.4-1-.4-1.4-.2-1 .4.4.6-.2 1.3-1.2 1.6-1.7.4-2.5-1.1-5.9-10.2-5.3-14.3-8.4-25.5-7.2-25.9.6-.2.8-.7.5-1.1-.2-.5.7-.6 2-.3 1.4.2 2.8.8 3.1 1.3zM329.5 529c.3.5.1 1-.4 1-.6 0-1.1-.5-1.1-1 0-.6.2-1 .4-1 .3 0 .8.4 1.1 1z"/><path d="M264.5 236.4c-8.3 2-16.2 6.2-21.8 11.5-10 9.5-14 20.5-14.1 39.1-.1 17.4 3.3 28.3 11.9 37.8 5.2 5.8 15.6 11.6 24.1 13.5 14.7 3.3 33.1-4.2 41.1-16.9 5.4-8.4 7.5-16.4 8-30.4.8-19.4-2.9-32.8-11.6-42.3-8.9-9.7-25.9-15.2-37.6-12.3zm1.3 18.2c.4 2.9-2.3 5.4-5.8 5.4-4.5 0-4.8-4-.5-7.3 2-1.5 6-.3 6.3 1.9zM270 513.9c0 .6.4 1.3 1 1.6.6.3.7-.1.4-.9-.7-1.8-1.4-2.1-1.4-.7z"/></svg>