<?xml version="1.0" encoding="UTF-8"?>
<svg viewBox="0 0 1468 1468" version="1.1" xmlns="http://www.w3.org/2000/svg" xmlns:xlink="http://www.w3.org/1999/xlink">
    <title>internal_server_error</title>
    <defs>
        <linearGradient x1="50%" y1="0%" x2="50%" y2="99.253804%" id="linearGradient-1">
            <stop stop-color="#484747" offset="0%"></stop>
            <stop stop-color="#535252" offset="47.6446203%"></stop>
            <stop stop-color="#989898" offset="68.1158117%"></stop>
            <stop stop-color="#C1C1C1" offset="100%"></stop>
        </linearGradient>
        <circle id="path-2" cx="734" cy="734" r="734"></circle>
        <radialGradient cx="63.1447218%" cy="-1.84965732%" fx="63.1447218%" fy="-1.84965732%" r="126.66566%" gradientTransform="translate(0.631447,-0.018497),scale(1.000000,0.789480),rotate(90.000000),scale(1.000000,0.906673),translate(-0.631447,0.018497)" id="radialGradient-4">
            <stop stop-color="#444444" offset="0%"></stop>
            <stop stop-color="#020202" offset="64.4339373%"></stop>
            <stop stop-color="#000000" offset="100%"></stop>
        </radialGradient>
        <path d="M208.884933,0 C262.538352,0 326.218871,21.0111295 354.079023,67.7112126 C381.939174,114.411296 388.801819,174.200594 388.801819,221.821688 C418.548945,253.222726 445.18502,278.306337 461.895869,300.138684 C478.606718,321.97103 525.222534,396.971637 534.026978,452.133376 C542.831421,507.295115 529.187694,532.370436 519.01795,543.273952 C508.848206,554.177468 498.829906,552.151317 493.83322,549.592806 C488.836535,547.034294 471.255076,510.745487 468.07654,500.658027 C464.898004,490.570566 442.9216,442.794102 434.927556,431.831667 C429.598194,424.523376 420.648521,411.847469 408.078537,393.803946 C408.078537,432.70817 408.078537,458.850735 408.078537,472.231641 C408.078537,492.303 387.003849,584.281514 347.675238,613.330011 C321.456164,632.695675 323.590759,644.122298 354.079023,647.609881 C387.683804,650.596971 405.683642,652.876434 408.078537,654.448273 C411.67088,656.80603 409.938391,660.551849 405.685802,660.551849 C401.433212,660.551849 282.177869,664.798536 275.454296,664.798536 C268.730722,664.798536 272.469622,660.114567 279.980588,657.28142 C287.491554,654.448273 283.531781,653.311934 279.005489,648.97835 C274.479196,644.644767 245.811576,650.221915 227.348254,652.87662 C208.884933,655.531326 169.745221,657.28142 166.474412,657.28142 C163.203603,657.28142 152.739082,658.234471 161.096528,662.097248 C170.642791,662.097248 201.282888,668.941327 207.426678,670.188486 C213.570467,671.435644 218.487872,674.444456 219.73022,676.432718 C220.972568,678.420979 213.314273,680.012121 205.973227,680.012121 C198.632182,680.012121 122.979045,673.513951 119.300583,671.851218 C115.622121,670.188486 115.264761,666.913077 112.212656,662.097248 C109.160551,657.28142 98.246349,654.664689 82.0924916,642.672777 C65.9386342,630.680864 42.3910459,606.709917 33.575547,592.841754 C24.7600482,578.973591 6.69124467,543.82098 1.37218902,533.466769 C-2.17384808,526.563961 1.15291748,431.051571 11.3524857,246.929599 C20.1516185,242.761394 25.6428413,237.183338 27.8261539,230.195429 C31.1011229,219.713566 42.9414603,124.014288 55.0433552,93.5772668 C71.014203,43.6901817 132.099566,1.91245855 208.884933,0 Z" id="path-5"></path>
        <linearGradient x1="104.267998%" y1="45.0423111%" x2="0%" y2="57.5509495%" id="linearGradient-7">
            <stop stop-color="#F09222" offset="0%"></stop>
            <stop stop-color="#EC6C1F" offset="31.2085703%"></stop>
            <stop stop-color="#E7351A" offset="62.864056%"></stop>
            <stop stop-color="#DC0F0F" offset="100%"></stop>
        </linearGradient>
        <path d="M52.3519136,2.73202271 C49.4925643,8.56389707 39.4070988,29.3980179 30.9745198,36.4998578 C22.5419408,43.6016976 16.9663828,46.9806504 10.3400775,51.1135459 C3.71377217,55.2464414 -1.13686838e-13,60.2287524 -1.13686838e-13,65.9486833 C-1.13686838e-13,71.6686142 0.357696137,75.5005683 6.62339085,77.3331314 C12.8890856,79.1656946 34.1099406,84.9939882 40.3048095,87.4009327 C46.4996784,89.8078773 55.6127529,96.2322835 60.2179947,99.7036087 C64.8232365,103.174934 69.0033011,106.68755 77.1981282,99.7036087 C85.3929553,92.7196671 97.1823147,82.6674747 101.961838,77.3331314 C106.741362,71.9987881 109.402253,67.1661997 109.402253,63.01837 C109.402253,58.8705404 102.967793,54.2700322 99.1713405,51.1135459 C95.3748879,47.9570596 88.4423893,43.6855908 81.129467,36.4998578 C73.8165446,29.3141248 69.1775617,21.229273 64.6977782,14.896585 C60.2179947,8.56389707 57.5448506,2.73202271 57.5448506,2.73202271 C57.5448506,2.73202271 55.2112629,-3.09985164 52.3519136,2.73202271 Z" id="path-8"></path>
        <radialGradient cx="138.319755%" cy="22.4577264%" fx="138.319755%" fy="22.4577264%" r="128.833707%" gradientTransform="translate(1.383198,0.224577),scale(1.000000,0.780928),rotate(148.840288),translate(-1.383198,-0.224577)" id="radialGradient-10">
            <stop stop-color="#FF0000" stop-opacity="0.299352259" offset="0%"></stop>
            <stop stop-color="#9A0000" stop-opacity="0.0248613691" offset="100%"></stop>
        </radialGradient>
        <linearGradient x1="30.7411617%" y1="51.1968771%" x2="102.678824%" y2="50%" id="linearGradient-11">
            <stop stop-color="#000000" offset="0%"></stop>
            <stop stop-color="#575757" offset="10.1596288%"></stop>
            <stop stop-color="#F66161" offset="100%"></stop>
        </linearGradient>
        <linearGradient x1="50%" y1="0%" x2="50%" y2="100%" id="linearGradient-12">
            <stop stop-color="#414141" offset="0%"></stop>
            <stop stop-color="#1F1F1F" offset="100%"></stop>
        </linearGradient>
        <radialGradient cx="88.5570726%" cy="-110.818741%" fx="88.5570726%" fy="-110.818741%" r="535.215017%" gradientTransform="translate(0.885571,-1.108187),scale(0.175795,1.000000),rotate(155.469137),scale(1.000000,0.678914),translate(-0.885571,1.108187)" id="radialGradient-13">
            <stop stop-color="#DF5454" offset="0%"></stop>
            <stop stop-color="#222222" offset="100%"></stop>
        </radialGradient>
        <polygon id="path-14" points="0.0478022542 148.222355 1602.02465 0.24392807 1618.68835 114.85191 16.329874 284.793483"></polygon>
        <radialGradient cx="50%" cy="0%" fx="50%" fy="0%" r="91.0878215%" gradientTransform="translate(0.500000,0.000000),scale(0.195952,1.000000),rotate(94.157573),scale(1.000000,3.374297),translate(-0.500000,-0.000000)" id="radialGradient-16">
            <stop stop-color="#0B0B0B" stop-opacity="0.420714905" offset="0%"></stop>
            <stop stop-color="#000000" stop-opacity="0.0124665374" offset="100%"></stop>
        </radialGradient>
        <radialGradient cx="52.3087447%" cy="-2.11306066%" fx="52.3087447%" fy="-2.11306066%" r="132.800303%" gradientTransform="translate(0.523087,-0.021131),scale(1.000000,0.747149),rotate(90.000000),translate(-0.523087,0.021131)" id="radialGradient-17">
            <stop stop-color="#E88181" offset="0%"></stop>
            <stop stop-color="#FFFFFF" offset="100%"></stop>
        </radialGradient>
        <linearGradient x1="44.2501168%" y1="39.1838918%" x2="58.2935159%" y2="107.336459%" id="linearGradient-18">
            <stop stop-color="#F78F8F" offset="0%"></stop>
            <stop stop-color="#EED4D4" offset="52.2601824%"></stop>
            <stop stop-color="#E2E2E2" offset="60.6028877%"></stop>
            <stop stop-color="#FFC1C1" offset="69.6341447%"></stop>
            <stop stop-color="#D8D8D8" offset="100%"></stop>
            <stop stop-color="#FC6565" offset="100%"></stop>
        </linearGradient>
        <radialGradient cx="48.400975%" cy="13.8305991%" fx="48.400975%" fy="13.8305991%" r="116.434437%" gradientTransform="translate(0.484010,0.138306),scale(1.000000,0.903736),rotate(75.704831),translate(-0.484010,-0.138306)" id="radialGradient-19">
            <stop stop-color="#FE9553" offset="0%"></stop>
            <stop stop-color="#CC3333" offset="100%"></stop>
        </radialGradient>
        <radialGradient cx="48.400975%" cy="13.8305991%" fx="48.400975%" fy="13.8305991%" r="117.956541%" gradientTransform="translate(0.484010,0.138306),scale(1.000000,0.891332),rotate(75.893142),translate(-0.484010,-0.138306)" id="radialGradient-20">
            <stop stop-color="#FE9553" offset="0%"></stop>
            <stop stop-color="#CC3333" offset="100%"></stop>
        </radialGradient>
        <radialGradient cx="32.639498%" cy="41.3273783%" fx="32.639498%" fy="41.3273783%" r="75.6627445%" gradientTransform="translate(0.326395,0.413274),scale(0.750451,1.000000),rotate(48.987369),translate(-0.326395,-0.413274)" id="radialGradient-21">
            <stop stop-color="#FFFFFF" offset="0%"></stop>
            <stop stop-color="#FDFDFD" stop-opacity="0.731269463" offset="47.3993325%"></stop>
            <stop stop-color="#3D3D3D" stop-opacity="0.496881658" offset="100%"></stop>
        </radialGradient>
        <linearGradient x1="90.1545512%" y1="46.4438406%" x2="6.64094729%" y2="62.0443895%" id="linearGradient-22">
            <stop stop-color="#605F5F" offset="0%"></stop>
            <stop stop-color="#F5E9E9" offset="100%"></stop>
        </linearGradient>
        <radialGradient cx="32.639498%" cy="41.3273783%" fx="32.639498%" fy="41.3273783%" r="73.1002935%" gradientTransform="translate(0.326395,0.413274),scale(0.816202,1.000000),rotate(51.353637),translate(-0.326395,-0.413274)" id="radialGradient-23">
            <stop stop-color="#FFFFFF" offset="0%"></stop>
            <stop stop-color="#FDFDFD" stop-opacity="0.731269463" offset="47.3993325%"></stop>
            <stop stop-color="#3D3D3D" stop-opacity="0.496881658" offset="100%"></stop>
        </radialGradient>
        <linearGradient x1="90.1545512%" y1="45.793393%" x2="6.64094729%" y2="64.2473965%" id="linearGradient-24">
            <stop stop-color="#605F5F" offset="0%"></stop>
            <stop stop-color="#F5E9E9" offset="100%"></stop>
        </linearGradient>
        <radialGradient cx="48.400975%" cy="13.8305991%" fx="48.400975%" fy="13.8305991%" r="107.076138%" gradientTransform="translate(0.484010,0.138306),scale(1.000000,0.988593),rotate(74.425120),translate(-0.484010,-0.138306)" id="radialGradient-25">
            <stop stop-color="#FE9553" offset="0%"></stop>
            <stop stop-color="#CC3333" offset="100%"></stop>
        </radialGradient>
    </defs>
    <g id="internal_server_error" stroke="none" stroke-width="1" fill="none" fill-rule="evenodd">
        <g>
            <mask id="mask-3" fill="white">
                <use xlink:href="#path-2"></use>
            </mask>
            <use id="Oval" fill="url(#linearGradient-1)" xlink:href="#path-2"></use>
            <g id="pingu" mask="url(#mask-3)">
                <g transform="translate(-20.748758, 504.304571)">
                    <mask id="mask-6" fill="white">
                        <use xlink:href="#path-5"></use>
                    </mask>
                    <use id="body-ouline" stroke="none" fill="url(#radialGradient-4)" fill-rule="evenodd" xlink:href="#path-5"></use>
                    <path d="M128.103976,235.066485 C212.285976,249.087209 267.370638,264.978575 364.304269,235.066485 C394.442214,283.126994 394.442214,283.126994 401.260376,377.679318 C408.078537,472.231641 388.133593,540.639796 376.218931,564.42138 C368.275823,580.27577 345.311273,609.662643 307.32528,652.581999 L220.125281,666.501683 L159.192224,666.501683 C134.695382,668.558659 112.065237,652.059519 91.3017915,617.004263 C60.1566228,564.42138 49.2287069,537.473192 49.2287069,494.171392 C49.2287069,450.869591 47.5993088,413.148983 58.9070976,360.603715 C70.2148863,308.058446 80.9149099,289.059189 98.7009974,268.145616 C116.487085,247.232044 98.7009974,264.978575 128.103976,235.066485 Z" id="belly" stroke="none" fill="#F6F6F6" fill-rule="evenodd" mask="url(#mask-6)"></path>
                    <path d="M115.708033,128.538323 C139.360982,71.3692654 167.721343,56.4409462 185.771731,50.9033849 C203.822119,45.3658237 231.492971,50.9033849 243.611298,65.9978493 C255.729624,81.0923138 260.986039,97.5121447 266.607952,97.5121447 C272.229865,97.5121447 273.067463,77.3001192 280.424955,67.4580457 C287.782448,57.6159722 300.989532,52.8325606 311.314042,52.8325606 C321.638551,52.8325606 342.554061,61.437672 349.744385,70.085401 C356.93471,78.73313 371.337487,100.437311 374.21022,118.291016 C377.082954,136.144721 381.762327,147.45905 381.762327,170.161516 C381.762327,192.863982 379.405229,217.403902 369.481528,226.819591 C359.557827,236.23528 326.630068,241.569538 314.925972,243.471835 C303.221877,245.374132 252.449386,248.107144 227.084691,244.955687 C201.719995,241.80423 150.096414,236.821451 136.701458,231.820521 C123.306502,226.819591 108.598701,209.89616 106.985699,185.734395 C105.372698,161.572629 105.372698,158.348197 115.708033,128.538323 Z" id="face" stroke="none" fill="#D8D8D8" fill-rule="evenodd" mask="url(#mask-6)"></path>
                    <ellipse id="right-eye" stroke="none" fill="#000000" fill-rule="evenodd" mask="url(#mask-6)" cx="326.248758" cy="133.695429" rx="6.5" ry="10"></ellipse>
                    <ellipse id="left-eye" stroke="none" fill="#000000" fill-rule="evenodd" mask="url(#mask-6)" transform="translate(197.748758, 133.195429) rotate(-11.000000) translate(-197.748758, -133.195429) " cx="197.748758" cy="133.195429" rx="8" ry="10.5"></ellipse>
                    <g id="beak" stroke="none" stroke-width="1" fill="none" fill-rule="evenodd" mask="url(#mask-6)">
                        <g transform="translate(213.007396, 124.631532)">
                            <mask id="mask-9" fill="white">
                                <use xlink:href="#path-8"></use>
                            </mask>
                            <use id="beak" stroke="none" fill="url(#linearGradient-7)" fill-rule="evenodd" xlink:href="#path-8"></use>
                        </g>
                    </g>
                    <path d="M352.105875,621.63232 C345.498394,610.981132 340.670447,607.611966 329.917294,612.240997 C319.164141,616.870029 285.895166,615.923147 277.197583,615.923147 C268.5,615.923147 257.713962,613.376175 264.83579,628.303694 C271.957618,643.231213 274.828386,642.769508 279.005489,648.97835 C283.182591,655.187193 277.829324,653.35743 273.145799,656.869485 C270.023448,659.210856 268.450839,662.478593 268.42797,666.672697 L301.609739,676.53068 L388.296701,680.012121 L440.495863,654.973477 L357.709698,630.443353 C358.378803,631.670122 356.510862,628.733111 352.105875,621.63232 Z" id="right-foot" stroke="none" fill="#F59119" fill-rule="evenodd" mask="url(#mask-6)"></path>
                    <path d="M225.896482,673.842347 L207.819039,662.231994 C187.620272,662.274324 175.10194,661.425847 170.264041,659.686561 C163.007193,657.077632 153.010167,663.811946 165.596332,642.280558 C178.182497,620.74917 144.097524,629.925047 130.340936,628.715811 C116.584348,627.506574 105.930224,617.559517 96.7472885,617.559517 C87.564353,617.559517 87.5178037,621.513204 94.9444633,636.493661 C102.371123,651.474118 112.319802,653.368848 112.319802,662.231994 C112.319802,668.140759 112.319802,675.002392 112.319802,682.816894 L180.845859,691.193136 L228.852353,687.396234 L225.896482,673.842347 Z" id="left-foot" stroke="none" fill="#F59119" fill-rule="evenodd" mask="url(#mask-6)"></path>
                    <path d="M197.748758,-44.4764976 C262.520223,48.8024457 262.184476,89.1902342 268.007396,121.361872 C273.830317,153.533509 265.539068,178.319212 278.789871,195.373477 C292.040673,212.427742 288.69447,228.090345 281.80516,228.360938 C274.915849,228.631532 266.346629,218.608282 262.404114,217.035897 C258.461599,215.463511 258.134511,234.020089 258.134511,246.394497 C258.134511,258.768906 268.5,329.759098 268.5,413.410968 C268.5,497.062837 265.423637,571.67501 242.799662,602.016313 C227.717012,622.243849 222.082619,643.795977 225.896482,666.672697 L213.007396,704.336446 L74.5736956,704.336446 L-102.32725,429.56819 L-107.640581,154.433221 L-70.9098754,-51.6863391 C65.0149042,-109.06574 154.567782,-106.66246 197.748758,-44.4764976 Z" id="Path" stroke="none" fill-opacity="0.0741726535" fill="#020202" fill-rule="evenodd" mask="url(#mask-6)"></path>
                    <ellipse id="Oval" stroke="none" fill="url(#radialGradient-10)" fill-rule="evenodd" mask="url(#mask-6)" cx="311.248758" cy="320.695429" rx="454.5" ry="582"></ellipse>
                </g>
            </g>
            <g id="keyboard" mask="url(#mask-3)">
                <g transform="translate(-38.030830, 1063.864088)">
                    <g id="keys" stroke="none" stroke-width="1" fill-rule="evenodd" transform="translate(132.596360, 0.633620)">
                        <g id="keycaps" fill="url(#linearGradient-11)" stroke="url(#linearGradient-12)" stroke-width="2">
                            <g id="row1" transform="translate(0.000000, 0.502293)">
                                <path d="M1220.43447,2.61147095 L1311.83048,-3.55271368e-15 C1316.48602,0.850928114 1318.8138,3.79420952 1318.8138,8.82984423 C1318.8138,13.8654789 1318.8138,27.1993159 1318.8138,48.8313551 L1220.43447,59.894976 L1220.43447,2.61147095 Z" id="key-copy"></path>
                                <path d="M1145.43447,4.61147095 L1236.83048,2 C1241.48602,2.85092811 1243.8138,5.79420952 1243.8138,10.8298442 C1243.8138,15.8654789 1243.8138,29.1993159 1243.8138,50.8313551 L1145.43447,61.894976 L1145.43447,4.61147095 Z" id="key-copy-2"></path>
                                <path d="M1067.43447,11.611471 L1158.83048,9 C1163.48602,9.85092811 1165.8138,12.7942095 1165.8138,17.8298442 C1165.8138,22.8654789 1165.8138,36.1993159 1165.8138,57.8313551 L1067.43447,68.894976 L1067.43447,11.611471 Z" id="key-copy-3"></path>
                                <path d="M983.43447,18.611471 L1074.83048,16 C1079.48602,16.8509281 1081.8138,19.7942095 1081.8138,24.8298442 C1081.8138,29.8654789 1081.8138,43.1993159 1081.8138,64.8313551 L983.43447,75.894976 L983.43447,18.611471 Z" id="key-copy-4"></path>
                                <path d="M898.43447,25.611471 L989.830482,23 C994.486024,23.8509281 996.813796,26.7942095 996.813796,31.8298442 C996.813796,36.8654789 996.813796,50.1993159 996.813796,71.8313551 L898.43447,82.894976 L898.43447,25.611471 Z" id="key-copy-5"></path>
                                <path d="M816.43447,33.611471 L907.830482,31 C912.486024,31.8509281 914.813796,34.7942095 914.813796,39.8298442 C914.813796,44.8654789 914.813796,58.1993159 914.813796,79.8313551 L816.43447,90.894976 L816.43447,33.611471 Z" id="key-copy-6"></path>
                                <path d="M734.43447,41.611471 L825.830482,39 C830.486024,39.8509281 832.813796,42.7942095 832.813796,47.8298442 C832.813796,52.8654789 832.813796,66.1993159 832.813796,87.8313551 L734.43447,98.894976 L734.43447,41.611471 Z" id="key-copy-7"></path>
                                <path d="M650.43447,46.611471 L741.830482,44 C746.486024,44.8509281 748.813796,47.7942095 748.813796,52.8298442 C748.813796,57.8654789 748.813796,71.1993159 748.813796,92.8313551 L650.43447,103.894976 L650.43447,46.611471 Z" id="key-copy-8"></path>
                                <path d="M566.43447,54.611471 L657.830482,52 C662.486024,52.8509281 664.813796,55.7942095 664.813796,60.8298442 C664.813796,65.8654789 664.813796,79.1993159 664.813796,100.831355 L566.43447,111.894976 L566.43447,54.611471 Z" id="key-copy-9"></path>
                                <path d="M475.43447,65.611471 L566.830482,63 C571.486024,63.8509281 573.813796,66.7942095 573.813796,71.8298442 C573.813796,76.8654789 573.813796,90.1993159 573.813796,111.831355 L475.43447,122.894976 L475.43447,65.611471 Z" id="key-copy-10"></path>
                                <path d="M383.43447,75.611471 L474.830482,73 C479.486024,73.8509281 481.813796,76.7942095 481.813796,81.8298442 C481.813796,86.8654789 481.813796,100.199316 481.813796,121.831355 L383.43447,132.894976 L383.43447,75.611471 Z" id="key-copy-11"></path>
                                <path d="M288.43447,85.611471 L379.830482,83 C384.486024,83.8509281 386.813796,86.7942095 386.813796,91.8298442 C386.813796,96.8654789 386.813796,110.199316 386.813796,131.831355 L288.43447,142.894976 L288.43447,85.611471 Z" id="key-copy-12"></path>
                                <path d="M188.43447,93.611471 L279.830482,91 C284.486024,91.8509281 286.813796,94.7942095 286.813796,99.8298442 C286.813796,104.865479 286.813796,118.199316 286.813796,139.831355 L188.43447,150.894976 L188.43447,93.611471 Z" id="key-copy-13"></path>
                                <path d="M92,101.109178 L183.396011,98.4977073 C188.051554,99.3486355 190.379325,102.291917 190.379325,107.327552 C190.379325,112.363186 190.379325,125.697023 190.379325,147.329062 L92,158.392683 L92,101.109178 Z" id="key"></path>
                                <path d="M-7.10542736e-15,110.109178 L91.3960114,107.497707 C96.0515541,108.348635 98.3793254,111.291917 98.3793254,116.327552 C98.3793254,121.363186 98.3793254,134.697023 98.3793254,156.329062 L-7.10542736e-15,167.392683 L-7.10542736e-15,110.109178 Z" id="key-copy-14"></path>
                            </g>
                            <g id="row1-copy-3" transform="translate(17.000000, 9.502293)">
                                <path d="M1220.43447,2.61147095 L1311.83048,-3.55271368e-15 C1316.48602,0.850928114 1318.8138,3.79420952 1318.8138,8.82984423 C1318.8138,13.8654789 1318.8138,27.1993159 1318.8138,48.8313551 L1220.43447,59.894976 L1220.43447,2.61147095 Z" id="key-copy"></path>
                                <path d="M1145.43447,4.61147095 L1236.83048,2 C1241.48602,2.85092811 1243.8138,5.79420952 1243.8138,10.8298442 C1243.8138,15.8654789 1243.8138,29.1993159 1243.8138,50.8313551 L1145.43447,61.894976 L1145.43447,4.61147095 Z" id="key-copy-2"></path>
                                <path d="M1067.43447,11.611471 L1158.83048,9 C1163.48602,9.85092811 1165.8138,12.7942095 1165.8138,17.8298442 C1165.8138,22.8654789 1165.8138,36.1993159 1165.8138,57.8313551 L1067.43447,68.894976 L1067.43447,11.611471 Z" id="key-copy-3"></path>
                                <path d="M983.43447,18.611471 L1074.83048,16 C1079.48602,16.8509281 1081.8138,19.7942095 1081.8138,24.8298442 C1081.8138,29.8654789 1081.8138,43.1993159 1081.8138,64.8313551 L983.43447,75.894976 L983.43447,18.611471 Z" id="key-copy-4"></path>
                                <path d="M898.43447,25.611471 L989.830482,23 C994.486024,23.8509281 996.813796,26.7942095 996.813796,31.8298442 C996.813796,36.8654789 996.813796,50.1993159 996.813796,71.8313551 L898.43447,82.894976 L898.43447,25.611471 Z" id="key-copy-5"></path>
                                <path d="M816.43447,33.611471 L907.830482,31 C912.486024,31.8509281 914.813796,34.7942095 914.813796,39.8298442 C914.813796,44.8654789 914.813796,58.1993159 914.813796,79.8313551 L816.43447,90.894976 L816.43447,33.611471 Z" id="key-copy-6"></path>
                                <path d="M734.43447,41.611471 L825.830482,39 C830.486024,39.8509281 832.813796,42.7942095 832.813796,47.8298442 C832.813796,52.8654789 832.813796,66.1993159 832.813796,87.8313551 L734.43447,98.894976 L734.43447,41.611471 Z" id="key-copy-7"></path>
                                <path d="M650.43447,46.611471 L741.830482,44 C746.486024,44.8509281 748.813796,47.7942095 748.813796,52.8298442 C748.813796,57.8654789 748.813796,71.1993159 748.813796,92.8313551 L650.43447,103.894976 L650.43447,46.611471 Z" id="key-copy-8"></path>
                                <path d="M566.43447,54.611471 L657.830482,52 C662.486024,52.8509281 664.813796,55.7942095 664.813796,60.8298442 C664.813796,65.8654789 664.813796,79.1993159 664.813796,100.831355 L566.43447,111.894976 L566.43447,54.611471 Z" id="key-copy-9"></path>
                                <path d="M475.43447,65.611471 L566.830482,63 C571.486024,63.8509281 573.813796,66.7942095 573.813796,71.8298442 C573.813796,76.8654789 573.813796,90.1993159 573.813796,111.831355 L475.43447,122.894976 L475.43447,65.611471 Z" id="key-copy-10"></path>
                                <path d="M383.43447,75.611471 L474.830482,73 C479.486024,73.8509281 481.813796,76.7942095 481.813796,81.8298442 C481.813796,86.8654789 481.813796,100.199316 481.813796,121.831355 L383.43447,132.894976 L383.43447,75.611471 Z" id="key-copy-11"></path>
                                <path d="M288.43447,85.611471 L379.830482,83 C384.486024,83.8509281 386.813796,86.7942095 386.813796,91.8298442 C386.813796,96.8654789 386.813796,110.199316 386.813796,131.831355 L288.43447,142.894976 L288.43447,85.611471 Z" id="key-copy-12"></path>
                                <path d="M188.43447,93.611471 L279.830482,91 C284.486024,91.8509281 286.813796,94.7942095 286.813796,99.8298442 C286.813796,104.865479 286.813796,118.199316 286.813796,139.831355 L188.43447,150.894976 L188.43447,93.611471 Z" id="key-copy-13"></path>
                                <path d="M92,101.109178 L183.396011,98.4977073 C188.051554,99.3486355 190.379325,102.291917 190.379325,107.327552 C190.379325,112.363186 190.379325,125.697023 190.379325,147.329062 L92,158.392683 L92,101.109178 Z" id="key"></path>
                                <path d="M-7.10542736e-15,110.109178 L91.3960114,107.497707 C96.0515541,108.348635 98.3793254,111.291917 98.3793254,116.327552 C98.3793254,121.363186 98.3793254,134.697023 98.3793254,156.329062 L-7.10542736e-15,167.392683 L-7.10542736e-15,110.109178 Z" id="key-copy-14"></path>
                            </g>
                            <g id="row1-copy-2" transform="translate(12.000000, 20.502293)">
                                <path d="M1220.43447,2.61147095 L1311.83048,-3.55271368e-15 C1316.48602,0.850928114 1318.8138,3.79420952 1318.8138,8.82984423 C1318.8138,13.8654789 1318.8138,27.1993159 1318.8138,48.8313551 L1220.43447,59.894976 L1220.43447,2.61147095 Z" id="key-copy"></path>
                                <path d="M1145.43447,4.61147095 L1236.83048,2 C1241.48602,2.85092811 1243.8138,5.79420952 1243.8138,10.8298442 C1243.8138,15.8654789 1243.8138,29.1993159 1243.8138,50.8313551 L1145.43447,61.894976 L1145.43447,4.61147095 Z" id="key-copy-2"></path>
                                <path d="M1067.43447,11.611471 L1158.83048,9 C1163.48602,9.85092811 1165.8138,12.7942095 1165.8138,17.8298442 C1165.8138,22.8654789 1165.8138,36.1993159 1165.8138,57.8313551 L1067.43447,68.894976 L1067.43447,11.611471 Z" id="key-copy-3"></path>
                                <path d="M983.43447,18.611471 L1074.83048,16 C1079.48602,16.8509281 1081.8138,19.7942095 1081.8138,24.8298442 C1081.8138,29.8654789 1081.8138,43.1993159 1081.8138,64.8313551 L983.43447,75.894976 L983.43447,18.611471 Z" id="key-copy-4"></path>
                                <path d="M898.43447,25.611471 L989.830482,23 C994.486024,23.8509281 996.813796,26.7942095 996.813796,31.8298442 C996.813796,36.8654789 996.813796,50.1993159 996.813796,71.8313551 L898.43447,82.894976 L898.43447,25.611471 Z" id="key-copy-5"></path>
                                <path d="M816.43447,33.611471 L907.830482,31 C912.486024,31.8509281 914.813796,34.7942095 914.813796,39.8298442 C914.813796,44.8654789 914.813796,58.1993159 914.813796,79.8313551 L816.43447,90.894976 L816.43447,33.611471 Z" id="key-copy-6"></path>
                                <path d="M734.43447,41.611471 L825.830482,39 C830.486024,39.8509281 832.813796,42.7942095 832.813796,47.8298442 C832.813796,52.8654789 832.813796,66.1993159 832.813796,87.8313551 L734.43447,98.894976 L734.43447,41.611471 Z" id="key-copy-7"></path>
                                <path d="M650.43447,46.611471 L741.830482,44 C746.486024,44.8509281 748.813796,47.7942095 748.813796,52.8298442 C748.813796,57.8654789 748.813796,71.1993159 748.813796,92.8313551 L650.43447,103.894976 L650.43447,46.611471 Z" id="key-copy-8"></path>
                                <path d="M566.43447,54.611471 L657.830482,52 C662.486024,52.8509281 664.813796,55.7942095 664.813796,60.8298442 C664.813796,65.8654789 664.813796,79.1993159 664.813796,100.831355 L566.43447,111.894976 L566.43447,54.611471 Z" id="key-copy-9"></path>
                                <path d="M475.43447,65.611471 L566.830482,63 C571.486024,63.8509281 573.813796,66.7942095 573.813796,71.8298442 C573.813796,76.8654789 573.813796,90.1993159 573.813796,111.831355 L475.43447,122.894976 L475.43447,65.611471 Z" id="key-copy-10"></path>
                                <path d="M383.43447,75.611471 L474.830482,73 C479.486024,73.8509281 481.813796,76.7942095 481.813796,81.8298442 C481.813796,86.8654789 481.813796,100.199316 481.813796,121.831355 L383.43447,132.894976 L383.43447,75.611471 Z" id="key-copy-11"></path>
                                <path d="M288.43447,85.611471 L379.830482,83 C384.486024,83.8509281 386.813796,86.7942095 386.813796,91.8298442 C386.813796,96.8654789 386.813796,110.199316 386.813796,131.831355 L288.43447,142.894976 L288.43447,85.611471 Z" id="key-copy-12"></path>
                                <path d="M188.43447,93.611471 L279.830482,91 C284.486024,91.8509281 286.813796,94.7942095 286.813796,99.8298442 C286.813796,104.865479 286.813796,118.199316 286.813796,139.831355 L188.43447,150.894976 L188.43447,93.611471 Z" id="key-copy-13"></path>
                                <path d="M92,101.109178 L183.396011,98.4977073 C188.051554,99.3486355 190.379325,102.291917 190.379325,107.327552 C190.379325,112.363186 190.379325,125.697023 190.379325,147.329062 L92,158.392683 L92,101.109178 Z" id="key"></path>
                                <path d="M-7.10542736e-15,110.109178 L91.3960114,107.497707 C96.0515541,108.348635 98.3793254,111.291917 98.3793254,116.327552 C98.3793254,121.363186 98.3793254,134.697023 98.3793254,156.329062 L-7.10542736e-15,167.392683 L-7.10542736e-15,110.109178 Z" id="key-copy-14"></path>
                            </g>
                            <g id="row1-copy" transform="translate(14.000000, 32.502293)">
                                <path d="M1220.43447,2.61147095 L1311.83048,-3.55271368e-15 C1316.48602,0.850928114 1318.8138,3.79420952 1318.8138,8.82984423 C1318.8138,13.8654789 1318.8138,27.1993159 1318.8138,48.8313551 L1220.43447,59.894976 L1220.43447,2.61147095 Z" id="key-copy"></path>
                                <path d="M1145.43447,4.61147095 L1236.83048,2 C1241.48602,2.85092811 1243.8138,5.79420952 1243.8138,10.8298442 C1243.8138,15.8654789 1243.8138,29.1993159 1243.8138,50.8313551 L1145.43447,61.894976 L1145.43447,4.61147095 Z" id="key-copy-2"></path>
                                <path d="M1067.43447,11.611471 L1158.83048,9 C1163.48602,9.85092811 1165.8138,12.7942095 1165.8138,17.8298442 C1165.8138,22.8654789 1165.8138,36.1993159 1165.8138,57.8313551 L1067.43447,68.894976 L1067.43447,11.611471 Z" id="key-copy-3"></path>
                                <path d="M983.43447,18.611471 L1074.83048,16 C1079.48602,16.8509281 1081.8138,19.7942095 1081.8138,24.8298442 C1081.8138,29.8654789 1081.8138,43.1993159 1081.8138,64.8313551 L983.43447,75.894976 L983.43447,18.611471 Z" id="key-copy-4"></path>
                                <path d="M898.43447,25.611471 L989.830482,23 C994.486024,23.8509281 996.813796,26.7942095 996.813796,31.8298442 C996.813796,36.8654789 996.813796,50.1993159 996.813796,71.8313551 L898.43447,82.894976 L898.43447,25.611471 Z" id="key-copy-5"></path>
                                <path d="M816.43447,33.611471 L907.830482,31 C912.486024,31.8509281 914.813796,34.7942095 914.813796,39.8298442 C914.813796,44.8654789 914.813796,58.1993159 914.813796,79.8313551 L816.43447,90.894976 L816.43447,33.611471 Z" id="key-copy-6"></path>
                                <path d="M734.43447,41.611471 L825.830482,39 C830.486024,39.8509281 832.813796,42.7942095 832.813796,47.8298442 C832.813796,52.8654789 832.813796,66.1993159 832.813796,87.8313551 L734.43447,98.894976 L734.43447,41.611471 Z" id="key-copy-7"></path>
                                <path d="M650.43447,46.611471 L741.830482,44 C746.486024,44.8509281 748.813796,47.7942095 748.813796,52.8298442 C748.813796,57.8654789 748.813796,71.1993159 748.813796,92.8313551 L650.43447,103.894976 L650.43447,46.611471 Z" id="key-copy-8"></path>
                                <path d="M566.43447,54.611471 L657.830482,52 C662.486024,52.8509281 664.813796,55.7942095 664.813796,60.8298442 C664.813796,65.8654789 664.813796,79.1993159 664.813796,100.831355 L566.43447,111.894976 L566.43447,54.611471 Z" id="key-copy-9"></path>
                                <path d="M475.43447,65.611471 L566.830482,63 C571.486024,63.8509281 573.813796,66.7942095 573.813796,71.8298442 C573.813796,76.8654789 573.813796,90.1993159 573.813796,111.831355 L475.43447,122.894976 L475.43447,65.611471 Z" id="key-copy-10"></path>
                                <path d="M383.43447,75.611471 L474.830482,73 C479.486024,73.8509281 481.813796,76.7942095 481.813796,81.8298442 C481.813796,86.8654789 481.813796,100.199316 481.813796,121.831355 L383.43447,132.894976 L383.43447,75.611471 Z" id="key-copy-11"></path>
                                <path d="M288.43447,85.611471 L379.830482,83 C384.486024,83.8509281 386.813796,86.7942095 386.813796,91.8298442 C386.813796,96.8654789 386.813796,110.199316 386.813796,131.831355 L288.43447,142.894976 L288.43447,85.611471 Z" id="key-copy-12"></path>
                                <path d="M188.43447,93.611471 L279.830482,91 C284.486024,91.8509281 286.813796,94.7942095 286.813796,99.8298442 C286.813796,104.865479 286.813796,118.199316 286.813796,139.831355 L188.43447,150.894976 L188.43447,93.611471 Z" id="key-copy-13"></path>
                                <path d="M92,101.109178 L183.396011,98.4977073 C188.051554,99.3486355 190.379325,102.291917 190.379325,107.327552 C190.379325,112.363186 190.379325,125.697023 190.379325,147.329062 L92,158.392683 L92,101.109178 Z" id="key"></path>
                                <path d="M-7.10542736e-15,110.109178 L91.3960114,107.497707 C96.0515541,108.348635 98.3793254,111.291917 98.3793254,116.327552 C98.3793254,121.363186 98.3793254,134.697023 98.3793254,156.329062 L-7.10542736e-15,167.392683 L-7.10542736e-15,110.109178 Z" id="key-copy-14"></path>
                            </g>
                        </g>
                    </g>
                    <g id="frame" stroke="none" stroke-width="1" fill-rule="evenodd" transform="translate(0.952198, 57.756072)">
                        <mask id="mask-15" fill="white">
                            <use xlink:href="#path-14"></use>
                        </mask>
                        <use id="keboard-frame" fill="url(#radialGradient-13)" xlink:href="#path-14"></use>
                        <polygon id="highlight" fill-opacity="0.308785819" fill="#D8D8D8" mask="url(#mask-15)" points="-72 120.175918 -13.3746842 177.596662 1662.04721 11.4193329 1633.892 -44"></polygon>
                    </g>
                    <path d="M716.03083,218.064255 C772.03083,289.199634 779.599818,274.841496 814.410156,274.841496 C849.220493,274.841496 963.03083,270.505857 928.220493,314.179986 C893.410156,357.854115 839.0448,408.682821 832.220493,438.560877 C827.670954,458.479581 833.337621,471.851057 849.220493,478.675304" id="cable" stroke="#2A2A2A" stroke-width="15"></path>
                </g>
            </g>
            <g id="computer" mask="url(#mask-3)">
                <g transform="translate(747.379325, -60.368156)">
                    <path d="M785.822688,1104.20786 C212.810337,1040.9384 26.7517343,1098.04823 6.68620445,1015.54232 C-13.3793254,933.036408 21.1617221,914.138077 39.9860297,910.235291 C52.5355681,907.633434 143.143671,921.371828 311.810337,951.450473 L811.442737,995.341347 C1176.37094,1110.09866 1167.83092,1146.3875 785.822688,1104.20786 Z" id="Path-2" fill="url(#radialGradient-16)"></path>
                    <path d="M12,28.6755927 C12,520.740994 12,801.297631 12,870.345505 C12,973.917316 48.0421936,989.25916 120.021097,996.185695 C168.007032,1000.80338 394.902647,1024.94919 800.70794,1068.62312 L800.70794,13 L12,28.6755927 Z" id="screen-frame" fill="url(#radialGradient-17)"></path>
                    <polygon id="void" fill="#6E6E6E" points="180.620675 0.405869883 192 851.150158 311.810337 904.678787 922.164555 951.450473 973.970323 457.175042 475.810337 -5.15782335e-17"></polygon>
                    <path d="M113,39.2147612 C113,505.619588 113,759.127739 113,799.739212 C113,860.656422 115.629134,895.318444 205.219736,904.678787 C264.946803,910.919016 454.405183,926.509578 773.594875,951.450473 L760.372257,913.653986 C489.976097,890.225981 343.551947,878.511978 321.099807,878.511978 C287.421597,878.511978 237.632101,837.585815 237.632101,743.580019 C237.632101,680.909488 237.632101,446.121068 237.632101,39.2147612 L113,39.2147612 Z" id="highlight" fill="url(#linearGradient-18)"></path>
                </g>
            </g>
            <g id="fire" mask="url(#mask-3)">
                <g transform="translate(616.822062, -74.132864)">
                    <path d="M620.592664,898.33298 C447.638418,884.002213 296.950566,620.972141 291.228242,598.717079 C285.505919,576.462017 312.359126,640.352766 395.077416,662.907019 C477.795707,685.461272 332.008048,455.894393 291.228242,373.372735 C264.041705,318.358296 253.627505,264.082178 259.985643,210.544381 C310.353879,346.095439 366.368306,429.863717 428.028925,461.849215 C520.519854,509.827461 491.716972,420.522369 477.795707,358.779322 C463.874441,297.036276 529.999576,169.504772 529.999576,222.830645 C529.999576,276.156517 503.315983,393.342391 571.622095,393.342391 C639.928206,393.342391 685.706795,321.38257 662.8175,286.029196 C639.928206,250.675822 692.251248,225.670013 729.216171,343.759614 C766.181094,461.849215 683.437583,491.105728 706.326877,538.186562 C729.216171,585.267397 806.871604,493.179302 786.526349,433.276019 C766.181094,373.372735 823.042559,414.5273 823.042559,506.62219 C823.042559,598.717079 800.153265,584.000469 800.153265,662.907019 C800.153265,741.813569 833.665076,707.027656 855.830829,652.872368 C877.996582,598.717079 900.162336,582.218073 877.996582,754.103625 C855.830829,925.989176 793.546909,912.663747 620.592664,898.33298 Z" id="fire-5" stroke="#CD4220" stroke-width="2" fill="url(#radialGradient-19)"></path>
                    <path d="M572.178411,901.970074 C481.504975,894.35244 402.504975,754.536708 399.504975,742.706852 C396.504975,730.876997 410.583107,764.838634 453.94921,776.827527 C497.315313,788.81642 420.884301,666.788315 399.504975,622.923269 C385.252092,593.679906 379.792317,564.829002 383.12565,536.37056 C409.53183,608.423805 438.898098,652.951501 471.224452,669.953648 C519.713984,695.456867 504.613711,647.986033 497.315313,615.166025 C490.016914,582.346016 524.683847,514.555628 524.683847,542.901421 C524.683847,571.247214 510.694638,633.538299 546.504975,633.538299 C582.315313,633.538299 606.315313,595.287483 594.315313,576.495115 C582.315313,557.702747 609.746324,544.41071 629.12565,607.182179 C648.504975,669.953648 605.12565,685.50518 617.12565,710.531373 C629.12565,735.557566 669.837486,686.607406 659.171231,654.765337 C648.504975,622.923269 678.315313,644.799307 678.315313,693.753079 C678.315313,742.706852 666.315313,734.884121 666.315313,776.827527 C666.315313,818.770933 683.884301,800.280203 695.504975,771.493528 C707.12565,742.706852 718.746324,733.936674 707.12565,825.30381 C695.504975,916.670945 662.851847,909.587707 572.178411,901.970074 Z" id="fire-2" stroke="#CD4220" stroke-width="2" fill="url(#radialGradient-20)"></path>
                    <path d="M790.178411,918.970074 C699.504975,911.35244 620.504975,771.536708 617.504975,759.706852 C614.504975,747.876997 628.583107,781.838634 671.94921,793.827527 C715.315313,805.81642 638.884301,683.788315 617.504975,639.923269 C603.252092,610.679906 597.792317,581.829002 601.12565,553.37056 C627.53183,625.423805 656.898098,669.951501 689.224452,686.953648 C737.713984,712.456867 722.613711,664.986033 715.315313,632.166025 C708.016914,599.346016 742.683847,531.555628 742.683847,559.901421 C742.683847,588.247214 728.694638,650.538299 764.504975,650.538299 C800.315313,650.538299 824.315313,612.287483 812.315313,593.495115 C800.315313,574.702747 827.746324,561.41071 847.12565,624.182179 C866.504975,686.953648 823.12565,702.50518 835.12565,727.531373 C847.12565,752.557566 887.837486,703.607406 877.171231,671.765337 C866.504975,639.923269 896.315313,661.799307 896.315313,710.753079 C896.315313,759.706852 884.315313,751.884121 884.315313,793.827527 C884.315313,835.770933 901.884301,817.280203 913.504975,788.493528 C925.12565,759.706852 936.746324,750.936674 925.12565,842.30381 C913.504975,933.670945 880.851847,926.587707 790.178411,918.970074 Z" id="fire-3" stroke="#CD4220" stroke-width="2" fill="url(#radialGradient-20)"></path>
                    <path d="M78.9537177,74.1328644 C-43.9221495,260.284571 -4.06341113,279.910369 68.5572635,416.489945 C141.177938,553.069521 188.367601,545.763657 294.177938,558.097214 C399.988275,570.430772 382.177938,509.097326 486.557263,416.489945 C556.14348,354.751692 617.270756,297.753935 669.939091,245.496676 C685.144314,308.165212 707.017039,321.875865 735.557263,286.628635 C764.097488,251.381404 731.30438,187.1664 637.177938,93.9836203 L539.939091,170.677627 C314.532754,-17.7866856 160.870962,-49.9682732 78.9537177,74.1328644 Z" id="smoke" stroke="url(#linearGradient-22)" stroke-width="7" fill="url(#radialGradient-21)"></path>
                    <path d="M357.275743,316.754989 C234.399876,502.906695 97.8307607,431.108627 170.451435,567.688203 C243.07211,704.267779 249.465406,687.087874 355.275743,699.421432 C461.08608,711.754989 530.275743,651.246259 608.275743,754.691092 C660.275743,823.654314 693.437463,871.675613 707.760904,898.754989 C688.357014,837.916116 692.925181,789.873065 721.465406,754.625834 C750.00563,719.378604 823.24563,666.618574 941.185403,596.345744 L929.847233,489.11207 C630.050151,250.106212 439.192988,192.653851 357.275743,316.754989 Z" id="smoke" stroke="url(#linearGradient-24)" stroke-width="7" fill="url(#radialGradient-23)"></path>
                    <path d="M453.178411,894.970074 C362.504975,887.35244 283.504975,747.536708 280.504975,735.706852 C277.504975,723.876997 291.583107,757.838634 334.94921,769.827527 C378.315313,781.81642 301.884301,659.788315 280.504975,615.923269 C266.252092,586.679906 260.792317,557.829002 264.12565,529.37056 C290.53183,601.423805 319.898098,645.951501 352.224452,662.953648 C400.713984,688.456867 385.613711,640.986033 378.315313,608.166025 C371.016914,575.346016 405.683847,507.555628 405.683847,535.901421 C405.683847,564.247214 391.694638,626.538299 427.504975,626.538299 C463.315313,626.538299 487.315313,588.287483 475.315313,569.495115 C463.315313,550.702747 490.746324,537.41071 510.12565,600.182179 C529.504975,662.953648 486.12565,678.50518 498.12565,703.531373 C510.12565,728.557566 550.837486,679.607406 540.171231,647.765337 C529.504975,615.923269 559.315313,637.799307 559.315313,686.753079 C559.315313,735.706852 547.315313,727.884121 547.315313,769.827527 C547.315313,811.770933 564.884301,793.280203 576.504975,764.493528 C588.12565,735.706852 599.746324,726.936674 588.12565,818.30381 C576.504975,909.670945 543.851847,902.587707 453.178411,894.970074 Z" id="fire-1" stroke="#CD4220" stroke-width="2" fill="url(#radialGradient-20)"></path>
                    <path d="M689.74486,917.163315 C618.253439,911.748097 555.965932,812.355987 553.600584,803.946387 C551.235236,795.536788 562.33513,819.679413 596.527111,828.202069 C630.719091,836.724724 570.457101,749.97747 553.600584,718.794717 C542.362906,698.006215 538.058149,677.496705 540.686314,657.266187 C561.506252,708.487348 584.66007,740.141166 610.147766,752.22764 C648.379311,770.357351 636.473509,736.611317 630.719091,713.280252 C624.964673,689.949187 652.297797,641.758404 652.297797,661.908841 C652.297797,682.059278 641.268013,726.340722 669.502653,726.340722 C697.737294,726.340722 716.660081,699.149008 707.198687,685.789903 C697.737294,672.430797 719.36526,662.981763 734.644879,707.604701 C749.924497,752.22764 715.722092,763.282903 725.183485,781.073505 C734.644879,798.864108 766.744104,764.066452 758.334301,741.430584 C749.924497,718.794717 773.428441,734.345939 773.428441,769.146163 C773.428441,803.946387 763.967048,798.385369 763.967048,828.202069 C763.967048,858.018768 777.819307,844.874091 786.981622,824.410239 C796.143936,803.946387 805.30625,797.711849 796.143936,862.662855 C786.981622,927.613861 761.236281,922.578533 689.74486,917.163315 Z" id="fire-4" stroke="#C14904" stroke-width="1" fill="url(#radialGradient-25)"></path>
                </g>
            </g>
        </g>
    </g>
</svg>
