<?xml version="1.0" encoding="UTF-8"?>
<svg viewBox="0 0 1470 1468" version="1.1" xmlns="http://www.w3.org/2000/svg" xmlns:xlink="http://www.w3.org/1999/xlink">
    <title>not_found</title>
    <defs>
        <circle id="path-1" cx="734.257584" cy="734" r="734"></circle>
        <path d="M64.4078037,86.5099106 C72.1098094,59.4856901 78.0826824,-2.99243393 161.178207,0.111560857 C221.391833,2.36081296 244.213671,48.9652007 244.213671,81.888944 C244.213671,105.1181 258.114983,117.04563 258.114983,142.476047 C258.114983,150.936542 267.604523,171.947887 286.583603,205.510081 C314.792915,261.069751 319.44381,306.284723 300.536287,341.154996 C296.327213,346.199844 296.327213,344.523587 291.455408,339.286652 C286.583603,334.049716 275.977875,302.818622 246.074036,260.789138 C241.677681,248.53079 243.694988,319.680312 222.96999,359.460804 C202.244992,399.241297 207.463151,390.713108 195.180382,406.003527 C194.745939,406.544351 196.688692,412.645744 207.282269,417.277231 C213.546837,420.016086 220.165189,420.016086 233.181609,423.720752 C246.198029,427.425417 241.747512,432.916596 246.074036,435.653559 C249.504308,437.823553 230.471931,429.516204 233.181609,431.39208 C237.742124,434.549268 233.647255,433.088461 236.151417,435.653559 C238.445627,438.003596 220.422417,433.486758 222.168582,435.653559 C223.329853,437.094571 224.3204,438.469212 225.074343,439.743102 C226.584398,442.294545 212.328112,437.355436 213.335923,439.743102 C215.26758,444.319509 215.952754,448.397728 214.149659,451.221224 C211.656017,451.221224 203.989433,445.846878 195.180382,443.100812 C186.371331,440.354746 159.630503,427.371788 155.958696,426.00911 C148.978646,423.418678 154.866099,412.936082 151.936645,413.056842 C147.30082,413.247941 142.998871,412.656338 139.256217,410.268931 C130.436818,404.643111 125.470901,406.787422 120.594874,410.268931 C115.718847,413.75044 117.776155,416.616744 108.482904,417.277231 C108.292854,417.290738 104.321993,420.490646 110.522145,426.00911 C116.981844,431.758583 133.703422,439.97431 137.648754,447.157849 C139.105962,449.811089 122.048149,442.139676 120.594874,443.100812 C115.287802,446.610689 117.986098,454.603477 115.287802,455 C106.142511,451.221224 103.056964,444.380958 101.064915,444.380958 C99.0728657,444.380958 97.3844347,451.809649 96.7224436,454 C90.9840597,454 84.6241105,441.634893 81.1228437,441.634893 C73.2781285,441.634893 70.8895413,448.143944 68.6169588,451.221224 C64.4078037,430.062433 76.6137753,418.899713 74.3900126,418.790422 C69.9880212,418.574078 72.1098094,415.111081 64.4078037,415.111081 C59.2731332,415.111081 39.3915301,417.980971 4.76299441,423.720752 L8.0829871,417.277231 L-2.84217094e-14,415.111081 L31.85938,380.349187 L20.6659299,363.017185 L29.8231211,363.017185 L12.0113373,330.128921 L25.4789304,330.128921 L18.8529945,320.243176 L29.8231211,322.409136 C16.5397217,261.198332 16.5397217,211.489747 29.8231211,173.283382 C49.7482202,115.973834 56.705798,113.534131 64.4078037,86.5099106 Z" id="path-3"></path>
        <radialGradient cx="40.4376031%" cy="2.96056283%" fx="40.4376031%" fy="2.96056283%" r="134.844548%" gradientTransform="translate(0.404376,0.029606),scale(0.690029,1.000000),rotate(39.604882),translate(-0.404376,-0.029606)" id="radialGradient-5">
            <stop stop-color="#FFFFFF" stop-opacity="0.592236499" offset="0%"></stop>
            <stop stop-color="#FFFFFF" stop-opacity="0" offset="100%"></stop>
        </radialGradient>
        <radialGradient cx="40.4376031%" cy="2.96056283%" fx="40.4376031%" fy="2.96056283%" r="141.915824%" gradientTransform="translate(0.404376,0.029606),scale(0.634870,1.000000),rotate(37.281051),translate(-0.404376,-0.029606)" id="radialGradient-6">
            <stop stop-color="#FFFFFF" stop-opacity="0.592236499" offset="0%"></stop>
            <stop stop-color="#FFFFFF" stop-opacity="0" offset="100%"></stop>
        </radialGradient>
    </defs>
    <g id="Page-1" stroke="none" stroke-width="1" fill="none" fill-rule="evenodd">
        <g id="not_found" transform="translate(0.742416, 0.000000)">
            <mask id="mask-2" fill="white">
                <use xlink:href="#path-1"></use>
            </mask>
            <use id="Oval" fill="#D3F1FF" xlink:href="#path-1"></use>
            <g id="iceberg" mask="url(#mask-2)">
                <g transform="translate(-53.000000, 692.233391)">
                    <polygon id="berg" fill="#F6FDFF" points="35.9817925 444.987263 290.855549 183.857879 397.540531 2.47017552e-14 592.169928 109.551311 742.1151 16.5325941 1022.33555 159.89088 1278.66108 125.238224 1455.95033 478.075267 1426.25175 881.735784 483.390036 954.563688 5.05134243e-15 592.468603"></polygon>
                    <polygon id="shadow-large-left" fill-opacity="0.0552619987" fill="#116EAF" points="397.540531 0 518.755952 177.1001 476.414772 344.4001 713.305803 452.812628 915.024343 837.370651 397.540531 828.03683 0 460.363523 119.954548 356.673659 290.855549 183.857879"></polygon>
                    <polygon id="Path-4" fill-opacity="0.06" fill="#116EAF" points="592.169928 109.551311 742.1151 16.5325941 742.1151 186.923041"></polygon>
                </g>
            </g>
            <g id="penguin" mask="url(#mask-2)">
                <g transform="translate(577.931664, 506.330536)">
                    <mask id="mask-4" fill="white">
                        <use xlink:href="#path-3"></use>
                    </mask>
                    <use id="body-outline" stroke="none" fill="#000000" fill-rule="evenodd" xlink:href="#path-3"></use>
                    <path d="M73.3390133,79.3647572 C73.3390133,65.8547746 80.9193386,40.9388042 108.438316,27.9788546 C132.902991,18.898801 149.152002,39.1663795 145.023095,50.2605073 C142.259592,54.644999 140.29985,68.6849453 129.258446,67.4394499 C118.217042,66.1939544 113.816275,62.8664952 113.816275,64.3407365 C119.341819,68.4025717 116.310014,67.0986325 123.384307,72.8537579 C130.4586,78.6088834 167.734873,97.1561251 169.792269,101.76732 C172.249546,98.2117969 182.915638,90.7442758 201.790543,79.3647572 C208.950105,75.024091 215.222545,72.8537579 220.607862,72.8537579 C228.685838,72.8537579 198.119325,72.8537579 201.790543,72.8537579 C205.46176,72.8537579 192.438103,73.5621267 193.91604,55.2443 C195.393977,36.9264732 199.918882,30.8922814 211.256773,30.8922814 C222.594665,30.8922814 233.347111,44.0277967 236.911632,57.1183623 C240.476154,70.208928 244.013603,79.7283302 245.722147,89.8038132 C247.43069,99.8792962 256.019105,110.480572 257.987362,123.824275 C259.95562,137.167979 258.172533,153.041304 257.987362,169.91904 C257.802192,186.796776 214.573851,244.469962 209.743953,271.027448 C204.914055,297.584935 195.595066,318.810342 184.752083,364.458751 C177.523428,394.891023 161.809894,408.249055 137.611483,404.532847 C127.652503,404.24749 120.841377,405.642562 117.178103,408.718063 C111.683193,413.331315 91.805401,410.221967 83.9740538,408.718063 C76.1427066,407.21416 67.6721669,406.398694 62.4089069,392.22504 C57.145647,378.051386 37.578052,333.393749 37.578052,326.98535 C37.578052,322.713083 36.9910335,318.513804 35.8169964,314.387513 C44.5851733,332.300739 51.7595142,344.514879 57.3400192,351.029935 C65.7107768,360.802518 81.3822308,382.092308 87.1669721,384.563997 C92.9517134,387.035686 95.4755926,387.34086 100.701808,387.188273 C105.928023,387.035686 110.454446,380.495086 113.816275,369.945805 C117.178103,359.396524 121.484076,339.583186 120.170242,326.98535 C118.856409,314.387513 115.790463,298.065677 110.7957,279.829166 C105.800937,261.592656 93.0286145,221.268669 90.0977933,212.868821 C87.1669721,204.468973 83.9740538,178.69557 83.9740538,166.816119 C83.9740538,154.936669 88.7420124,127.18335 85.4569201,117.394622 C82.1718279,107.605893 73.3390133,92.8747398 73.3390133,79.3647572 Z" id="white-feathers" stroke="none" fill="#FFFFFF" fill-rule="evenodd" mask="url(#mask-4)"></path>
                    <ellipse id="right-eye" stroke="none" fill="#000000" fill-rule="evenodd" mask="url(#mask-4)" cx="206.32592" cy="58.6694641" rx="5" ry="7"></ellipse>
                    <ellipse id="left-eye" stroke="none" fill="#000000" fill-rule="evenodd" mask="url(#mask-4)" cx="129.32592" cy="53.1694641" rx="7" ry="9.5"></ellipse>
                    <path d="M172.016125,58.1270864 C160.66048,62.5897505 151.572402,75.188715 141.180314,74.3703303 C134.252255,73.8247404 130.300791,74.6610208 129.32592,76.8791714 C148.19406,88.1352363 161.682843,96.431286 169.792269,101.76732 C178.258352,95.4351423 197.264237,82.4132655 199.848026,80.9627698 C202.431815,79.5122741 189.755763,75.188715 185.906064,74.3703303 C182.056365,73.5519455 179.115565,60.6453907 172.016125,58.1270864 Z" id="beak" stroke="none" fill="#CD8637" fill-rule="evenodd" mask="url(#mask-4)"></path>
                    <path d="M108.620098,70.2352614 C103.011206,68.7705833 93.9244742,65.4294483 108.620098,63.5544403 C115.226816,62.9644562 119.590351,65.6636945 121.710702,71.6521553 C116.722893,71.6840114 112.359359,71.2117135 108.620098,70.2352614 Z" id="beak-left" stroke="none" fill="#CD8637" fill-rule="evenodd" mask="url(#mask-4)"></path>
                    <path d="M217.532575,72.5525674 C213.717048,72.5525674 209.614342,73.883029 205.981972,76.87284 C212.788463,78.0491833 217.364065,78.3950064 220.041923,77.218663 C222.675074,76.0619586 226.995962,74.228852 217.532575,72.5525674 Z" id="beak-right" stroke="none" fill="#CD8637" fill-rule="evenodd" mask="url(#mask-4)"></path>
                    <path d="M66.0491354,428.833773 C70.8097067,421.609581 75.2482969,417.997485 79.3649061,417.997485 C85.5398197,417.997485 114.003035,417.766941 122.05715,420.591285 C127.42656,422.474181 134.594666,422.474181 143.56147,420.591285 L150.524325,414.355679 C162.556578,412.141418 170.719132,411.034287 175.011985,411.034287 C181.451265,411.034287 192.800045,407.648841 196.649115,407.648841 C199.215162,407.648841 217.109542,411.962989 250.332255,420.591285 L255.519342,443.576575 L216.388038,458.098749 L156.006581,447.236674 L127.32592,460.56843 L79.3649061,466.464759 L46.2206558,443.576575 L66.0491354,428.833773 Z" id="Path" stroke="none" fill="#AD552C" fill-rule="evenodd" mask="url(#mask-4)"></path>
                    <path d="M79.9335576,-22.2538818 C127.737433,-16.9218407 158.69206,9.23092798 172.797437,56.2044243 C172.797437,86.6629419 172.797437,101.892201 172.797437,101.892201 C172.797437,101.892201 163.492364,114.459592 156.343019,120.809597 C149.193675,127.159602 129.489645,133.600525 121.47361,141.258712 C113.457575,148.9169 102.973814,153.819051 105.857432,176.865489 C108.74105,199.911927 113.234754,236.674046 110.987902,247.92709 C108.74105,259.180135 106.636108,281.41832 102.031711,288.376743 C97.4273145,295.335167 91.4730169,348.702938 91.4730169,360.416719 C91.4730169,372.1305 85.5299901,402.658772 85.5299901,408.964035 C85.5299901,413.167544 81.9919935,415.599295 74.9160004,416.259286 L20.0608591,432.577634 L-65.0876086,408.964035 L-46.9514841,168.193322 L41.8717098,-26.51872 C19.4423993,-29.0075356 32.1296819,-27.5859228 79.9335576,-22.2538818 Z" id="Path-2" stroke="none" fill-opacity="0.106149954" fill="#404040" fill-rule="evenodd" mask="url(#mask-4)"></path>
                    <path d="M97.2459017,453.274462 C87.3313933,439.769239 82.3741391,428.010696 82.3741391,417.998833 C89.0004707,417.911437 101.224588,417.911437 108.445439,418.959585 C110.361019,420.051546 111.780051,427.26436 119.149545,431.200733 C126.519039,435.137107 130.108801,438.338513 131.567654,439.90082 C132.540222,440.942358 134.489085,443.13324 137.414242,446.473466 C131.430227,443.54873 126.789286,441.357847 123.491421,439.90082 C118.544622,437.715278 113.296449,435.712623 111.177353,434.68143 C109.764623,433.993967 106.889008,432.150427 102.550509,429.150809 L111.177353,439.90082 C116.061901,446.019704 117.916632,450.178416 116.741544,452.376956 C117.785623,455.230664 117.537449,456.371792 115.99702,455.800338 C113.428533,450.796961 110.911339,447.085882 108.445439,444.667101 C104.746587,441.038929 101.99975,440.96272 100.322211,439.90082 C98.6446721,438.838919 98.3473304,438.064118 97.2459017,436.472649 C96.511616,435.41167 95.324208,433.390312 93.6836778,430.408575 C93.0798767,432.799075 93.9455408,436.455857 96.2806701,441.378924 C98.6157994,446.30199 98.9375433,450.26717 97.2459017,453.274462 Z" id="Path-3" stroke="none" fill="url(#radialGradient-5)" fill-rule="evenodd" mask="url(#mask-4)"></path>
                    <path d="M178.800023,410.698882 C185.426355,410.611486 188.28144,406.600694 195.502291,407.648841 C197.417871,408.740803 210.738836,414.919843 218.10833,418.856216 C225.477824,422.79259 245.718904,424.999212 247.177757,426.561519 C248.150325,427.603057 247.782418,430.633737 246.074036,435.653559 C235.159772,429.336557 226.749936,425.580983 220.84453,424.386837 C225.688433,427.524875 237.182456,431.084331 237.182456,436.590598 C226.967974,433.258623 214.107024,426.561519 202.948587,422.483472 C215.244846,428.535838 222.742442,434.585288 225.441378,440.63182 C208.030572,431.493993 198.468912,426.450232 196.756396,425.500539 C212.017211,434.791044 217.814965,443.364606 214.149659,451.221224 C207.159647,438.792164 197.400509,430.572262 184.872245,426.561519 C180.642097,424.7703 178.800023,425.716677 178.800023,410.698882 Z" id="Path-3-Copy" stroke="none" fill="url(#radialGradient-6)" fill-rule="evenodd" mask="url(#mask-4)"></path>
                </g>
            </g>
        </g>
    </g>
</svg>
