<?xml version="1.0" encoding="UTF-8"?>
<svg width="50.266mm" height="8.477mm" version="1.1" viewBox="0 0 50.266 8.477" xmlns="http://www.w3.org/2000/svg" xmlns:cc="http://creativecommons.org/ns#" xmlns:dc="http://purl.org/dc/elements/1.1/" xmlns:rdf="http://www.w3.org/1999/02/22-rdf-syntax-ns#">
 <metadata>
  <rdf:RDF>
   <cc:Work rdf:about="">
    <dc:format>image/svg+xml</dc:format>
    <dc:type rdf:resource="http://purl.org/dc/dcmitype/StillImage"/>
    <dc:title/>
   </cc:Work>
  </rdf:RDF>
 </metadata>
 <g transform="translate(-45.664 -96.658)" style="stroke-width:.26458" aria-label="Stanko.io">
  <path d="m51.696 102.86q0 0.5715-0.254 1.0054-0.24342 0.42333-0.65616 0.70908-0.40216 0.27517-0.91016 0.42334-0.49742 0.13758-1.0054 0.13758-0.89958 0-1.7039-0.34925-0.80433-0.34925-1.4393-0.9525-0.0635-0.0635-0.0635-0.11641 0-0.0635 0.05292-0.11642 0.05292-0.0635 0.127-0.0635 0.05292 0 0.10583 0.0529 0.65616 0.55033 1.3547 0.88899 0.70908 0.32809 1.5875 0.32809 0.4445 0 0.87841-0.11642 0.4445-0.127 0.79375-0.37042 0.35983-0.254 0.5715-0.62441 0.22225-0.37042 0.22225-0.86783 0-0.40217-0.1905-0.68792-0.1905-0.29633-0.49742-0.49741-0.30692-0.21167-0.70908-0.34925-0.39158-0.13758-0.79375-0.23283-0.40216-0.10584-0.79375-0.17992-0.381-0.0741-0.66675-0.14816-0.34925-0.0952-0.67733-0.254-0.3175-0.16934-0.56092-0.41275-0.24342-0.24342-0.39158-0.56092-0.13758-0.32808-0.13758-0.73025 0-0.53975 0.24342-0.93133 0.254-0.40217 0.64558-0.65616 0.40216-0.26458 0.87841-0.39158 0.48683-0.13758 0.9525-0.13758 0.29633 0 0.66675 0.0635 0.381 0.0635 0.75141 0.1905 0.381 0.11642 0.70908 0.28575 0.32808 0.16933 0.55033 0.381 0.03175 0.03175 0.04233 0.05292 0.02117 0.02117 0.02117 0.07408 0 0.0635-0.05292 0.11642-0.05292 0.05292-0.11642 0.05292-0.02117 0-0.08467-0.03175-0.05292-0.03175-0.127-0.07408-0.0635-0.05292-0.127-0.08467-0.05292-0.04233-0.08467-0.0635-0.47625-0.28575-1.016-0.45508-0.53975-0.16933-1.1112-0.16933-0.40216 0-0.8255 0.10583-0.42333 0.09525-0.78316 0.30692-0.34925 0.21167-0.58208 0.55033-0.22225 0.32808-0.22225 0.79375 0 0.508 0.23283 0.83608 0.23283 0.3175 0.61383 0.52916 0.381 0.20109 0.86783 0.32809 0.48683 0.127 0.99483 0.24341 0.51858 0.11642 1.0054 0.254t0.86783 0.381q0.381 0.23283 0.61383 0.60325 0.23283 0.35983 0.23283 0.93133z" style="fill:#dd6b20;stroke-width:.26458"/>
  <path d="m58.216 96.827q0 0.0635-0.05292 0.11642-0.04233 0.04233-0.10583 0.04233h-5.207q-0.0635 0-0.11642-0.04233-0.04233-0.05292-0.04233-0.11642 0-0.0635 0.04233-0.10583 0.05292-0.05292 0.11642-0.05292h5.207q0.0635 0 0.10583 0.05292 0.05292 0.04233 0.05292 0.10583zm0.05292 1.0266q0 0.0635-0.05292 0.11642-0.04233 0.05292-0.10583 0.05292h-2.4553v6.9532q0 0.0635-0.05292 0.11642-0.05292 0.0423-0.11642 0.0423-0.0635 0-0.11642-0.0423-0.05292-0.0423-0.05292-0.11642v-6.9532h-2.4659q-0.0635 0-0.11642-0.05292-0.04233-0.05292-0.04233-0.11642 0-0.0635 0.04233-0.11642 0.04233-0.0635 0.11642-0.0635h5.2599q0.07408 0 0.11642 0.0635 0.04233 0.05292 0.04233 0.11642z" style="fill:#dd6b20;stroke-width:.26458"/>
  <path d="m64.185 104.98q0 0.0635-0.05292 0.11642-0.04233 0.0423-0.10583 0.0423-0.127 0-0.15875-0.10583l-3.0797-7.7681-0.34925 0.89958q0.04233 0.08467 0.17992 0.42333 0.13758 0.33866 0.33866 0.83608 0.20108 0.48683 0.43392 1.0901 0.23283 0.59266 0.47625 1.2065t0.46566 1.1959q0.23283 0.58208 0.40217 1.0372 0.17992 0.45508 0.28575 0.74083 0.10583 0.27517 0.10583 0.28575 0 0.11642-0.10583 0.14816-0.02117 0-0.03175 0.0106-0.01058 0-0.03175 0-0.10583 0-0.14817-0.10583l-2.54-6.4135-2.4659 6.4135q-0.04233 0.10583-0.15875 0.10583-0.02117 0-0.03175 0 0-0.0106-0.02117-0.0106-0.10583-0.0317-0.10583-0.15874 0-0.0106 0.127-0.34925 0.127-0.33867 0.32808-0.87842 0.21167-0.53975 0.47625-1.2382 0.27517-0.6985 0.55033-1.4288 0.28575-0.74083 0.56092-1.4605 0.28575-0.71966 0.508-1.3123 0.23283-0.60325 0.39158-1.0054 0.15875-0.41275 0.20108-0.52916 0.04233-0.09525 0.15875-0.09525 0.11642 0 0.14817 0.09525 0.04233 0.11642 0.20108 0.52916 0.16933 0.40217 0.40217 1.0054 0.23283 0.59266 0.51858 1.3123 0.29633 0.71966 0.58208 1.4605 0.29633 0.73025 0.5715 1.4288 0.28575 0.69849 0.49742 1.2488 0.21167 0.53974 0.33867 0.87841 0.13758 0.33867 0.13758 0.34925z" style="fill:#dd6b20;stroke-width:.26458"/>
  <path d="m71.985 104.97q0 0.16933-0.16933 0.16933-0.08467 0-0.127-0.0635l-5.8208-8.0962q-0.02117-0.02117-0.02117-0.09525 0-0.16933 0.15875-0.16933 0.0635 0 0.127 0.07408l5.5245 7.6835v-7.6411q0-0.0635 0.04233-0.10583 0.05292-0.05292 0.11642-0.05292 0.0635 0 0.10583 0.05292 0.05292 0.04233 0.05292 0.10583zm-1.2806 0.0106q0 0.0635-0.05292 0.11642-0.05292 0.0423-0.11642 0.0423-0.08467 0-0.127-0.0635l-4.2439-5.9584v5.8526q0 0.0635-0.05292 0.11641-0.05292 0.0529-0.11642 0.0529-0.16933 0-0.16933-0.16933v-6.3817q0-0.05292 0.05292-0.10583 0.05292-0.05292 0.10583-0.05292 0.07408 0 0.13758 0.07408 0.07408 0.10583 0.30692 0.43392 0.23283 0.3175 0.5715 0.78316 0.33867 0.46566 0.74083 1.0372 0.40217 0.56092 0.81491 1.1324 0.41275 0.57149 0.79375 1.1218 0.39158 0.53975 0.68791 0.97367 0.30692 0.42333 0.48683 0.6985 0.17992 0.26458 0.17992 0.29633z" style="fill:#dd6b20;stroke-width:.26458"/>
  <path d="m79.276 104.99q0 0.0635-0.0635 0.10584-0.05292 0.0423-0.10583 0.0423-0.08467 0-0.127-0.0635l-2.8469-3.9793-1.5663 1.5663v2.2437q0 0.0635-0.05292 0.11641-0.05292 0.0423-0.11642 0.0423-0.0635 0-0.11642-0.0423-0.05292-0.0423-0.05292-0.11641v-8.0221q0-0.07408 0.05292-0.11642 0.05292-0.04233 0.11642-0.04233 0.0635 0 0.11642 0.05292 0.05292 0.04233 0.05292 0.10583v3.8947l4.0534-4.064q0.05292-0.05292 0.10583-0.05292 0.0635 0 0.11642 0.0635 0.05292 0.05292 0.05292 0.10583 0 0.0635-0.05292 0.11642l-4.2757 4.2862v0.97366q0.04233-0.0423 0.16933-0.16933 0.127-0.13758 0.28575-0.30691 0.15875-0.16934 0.33867-0.34925 0.1905-0.17992 0.34925-0.32809 0.15875-0.15874 0.27517-0.25399 0.11642-0.10584 0.14817-0.10584 0.09525 0 0.14817 0.0635 0.0635 0.0953 0.30692 0.4445 0.254 0.33867 0.58208 0.79375 0.33867 0.45508 0.70908 0.96308 0.37042 0.508 0.67733 0.9525 0.3175 0.43391 0.51858 0.74083 0.20108 0.29633 0.20108 0.33866z" style="fill:#dd6b20;stroke-width:.26458"/>
  <path d="m87.912 100.9q0 0.87841-0.33867 1.651-0.32808 0.77258-0.89958 1.3441t-1.3441 0.91017q-0.77258 0.32808-1.651 0.32808t-1.651-0.32808q-0.77258-0.33867-1.3441-0.91017t-0.91016-1.3441q-0.32808-0.77258-0.32808-1.651 0-0.87842 0.32808-1.651 0.33867-0.77258 0.91016-1.3441 0.5715-0.5715 1.3441-0.89958 0.77258-0.33866 1.651-0.33866t1.651 0.33866q0.77258 0.32808 1.3441 0.89958 0.5715 0.5715 0.89958 1.3441 0.33867 0.77258 0.33867 1.651zm-0.32808 0q0-0.80433-0.30692-1.5134-0.30692-0.70908-0.84666-1.2382-0.52916-0.53975-1.2382-0.84666-0.70908-0.30692-1.5134-0.30692t-1.5134 0.30692q-0.70908 0.30692-1.2488 0.84666-0.52916 0.52916-0.83608 1.2382-0.30692 0.70908-0.30692 1.5134t0.30692 1.5134 0.83608 1.2488q0.53975 0.52916 1.2488 0.83608t1.5134 0.30692 1.5134-0.30692 1.2382-0.83608q0.53975-0.53975 0.84666-1.2488t0.30692-1.5134z" style="fill:#dd6b20;stroke-width:.26458"/>
  <path d="m88.103 104.71q0-0.14817 0.09525-0.24342 0.10583-0.10583 0.254-0.10583 0.14817 0 0.24342 0.10583 0.10583 0.0952 0.10583 0.24342 0 0.14816-0.10583 0.254-0.09525 0.0952-0.24342 0.0952t-0.254-0.0952q-0.09525-0.10584-0.09525-0.254z" style="fill:#dd6b20;stroke-width:.26458"/>
  <path d="m90.387 105.05q0 0.0395-0.02822 0.0621t-0.06209 0.0226-0.06209-0.0226q-0.02258-0.0282-0.02258-0.0621v-4.3462q0-0.0339 0.02258-0.0564 0.02822-0.0282 0.06209-0.0282t0.06209 0.0226 0.02822 0.0621z" style="fill:#dd6b20"/>
  <path d="m95.93 102.88q0 0.46849-0.18062 0.88053-0.17498 0.41205-0.47978 0.71685-0.3048 0.3048-0.71684 0.48542-0.41204 0.17498-0.88053 0.17498t-0.88053-0.17498q-0.41204-0.18062-0.71684-0.48542-0.3048-0.3048-0.48542-0.71685-0.17498-0.41204-0.17498-0.88053t0.17498-0.88053q0.18062-0.41204 0.48542-0.71684 0.3048-0.3048 0.71684-0.47978 0.41204-0.18062 0.88053-0.18062t0.88053 0.18062q0.41204 0.17498 0.71684 0.47978 0.3048 0.3048 0.47978 0.71684 0.18062 0.41204 0.18062 0.88053zm-0.17498 0q0-0.42898-0.16369-0.80715-0.16369-0.37818-0.45156-0.6604-0.28222-0.28787-0.6604-0.45156-0.37818-0.16369-0.80716-0.16369t-0.80716 0.16369q-0.37818 0.16369-0.66604 0.45156-0.28222 0.28222-0.44591 0.6604-0.16369 0.37817-0.16369 0.80715t0.16369 0.80716q0.16369 0.37817 0.44591 0.66604 0.28787 0.28222 0.66604 0.44591 0.37818 0.16369 0.80716 0.16369t0.80716-0.16369q0.37818-0.16369 0.6604-0.44591 0.28787-0.28787 0.45156-0.66604 0.16369-0.37818 0.16369-0.80716z" style="fill:#dd6b20"/>
 </g>
</svg>
