<?xml version="1.0" encoding="UTF-8" standalone="no"?>
<svg
   xmlns:dc="http://purl.org/dc/elements/1.1/"
   xmlns:cc="http://creativecommons.org/ns#"
   xmlns:rdf="http://www.w3.org/1999/02/22-rdf-syntax-ns#"
   xmlns:svg="http://www.w3.org/2000/svg"
   xmlns="http://www.w3.org/2000/svg"
   xmlns:sodipodi="http://sodipodi.sourceforge.net/DTD/sodipodi-0.dtd"
   xmlns:inkscape="http://www.inkscape.org/namespaces/inkscape"
   width="50.265999mm"
   height="8.4770002mm"
   viewBox="0 0 50.265999 8.4770002"
   version="1.1"
   id="svg8"
   inkscape:version="1.0.1 (3bc2e813f5, 2020-09-07, custom)"
   sodipodi:docname="logo.svg">
  <defs
     id="defs2" />
  <sodipodi:namedview
     id="base"
     pagecolor="#ffffff"
     bordercolor="#666666"
     borderopacity="1.0"
     inkscape:pageopacity="0.0"
     inkscape:pageshadow="2"
     inkscape:zoom="12.101164"
     inkscape:cx="47.722683"
     inkscape:cy="16.019528"
     inkscape:document-units="mm"
     inkscape:current-layer="text12"
     inkscape:document-rotation="0"
     showgrid="false"
     inkscape:window-width="2498"
     inkscape:window-height="1357"
     inkscape:window-x="30"
     inkscape:window-y="51"
     inkscape:window-maximized="0" />
  <metadata
     id="metadata5">
    <rdf:RDF>
      <cc:Work
         rdf:about="">
        <dc:format>image/svg+xml</dc:format>
        <dc:type
           rdf:resource="http://purl.org/dc/dcmitype/StillImage" />
        <dc:title></dc:title>
      </cc:Work>
    </rdf:RDF>
  </metadata>
  <g
     inkscape:label="Layer 1"
     inkscape:groupmode="layer"
     id="layer1">
    <g
       aria-label="Stanko.io"
       id="text12"
       style="font-style:normal;font-variant:normal;font-weight:normal;font-stretch:normal;font-size:10.5833px;line-height:1.25;font-family:Anders;-inkscape-font-specification:Anders;opacity:1;fill:#000000;fill-opacity:1;stroke:none;stroke-width:0.264583"
       transform="translate(-45.664004,-96.657669)">
      <path
         d="m 51.696485,102.85951 q 0,0.5715 -0.253999,1.00541 -0.243416,0.42333 -0.656165,0.70908 -0.402165,0.27517 -0.910164,0.42334 -0.497415,0.13758 -1.005413,0.13758 -0.899581,0 -1.703912,-0.34925 -0.80433,-0.34925 -1.439328,-0.9525 -0.0635,-0.0635 -0.0635,-0.11641 0,-0.0635 0.05292,-0.11642 0.05292,-0.0635 0.127,-0.0635 0.05292,0 0.105833,0.0529 0.656165,0.55033 1.354662,0.88899 0.709081,0.32809 1.587495,0.32809 0.444499,0 0.878414,-0.11642 0.444499,-0.127 0.793748,-0.37042 0.359832,-0.254 0.571498,-0.62441 0.222249,-0.37042 0.222249,-0.86783 0,-0.40217 -0.190499,-0.68792 -0.1905,-0.29633 -0.497415,-0.49741 -0.306916,-0.21167 -0.709081,-0.34925 -0.391582,-0.13758 -0.793748,-0.23283 -0.402165,-0.10584 -0.793747,-0.17992 -0.380999,-0.0741 -0.666748,-0.14816 -0.349249,-0.0952 -0.677331,-0.254 -0.317499,-0.16934 -0.560915,-0.41275 -0.243416,-0.243418 -0.391582,-0.560917 -0.137583,-0.328082 -0.137583,-0.730248 0,-0.539748 0.243416,-0.93133 0.253999,-0.402166 0.645581,-0.656165 0.402165,-0.264582 0.878414,-0.391582 0.486832,-0.137583 0.952497,-0.137583 0.296332,0 0.666748,0.0635 0.380998,0.0635 0.751414,0.190499 0.380999,0.116417 0.709081,0.285749 0.328082,0.169333 0.550332,0.380999 0.03175,0.03175 0.04233,0.05292 0.02117,0.02117 0.02117,0.07408 0,0.0635 -0.05292,0.116416 -0.05292,0.05292 -0.116416,0.05292 -0.02117,0 -0.08467,-0.03175 -0.05292,-0.03175 -0.126999,-0.07408 -0.0635,-0.05292 -0.127,-0.08467 -0.05292,-0.04233 -0.08467,-0.0635 -0.476249,-0.285749 -1.015997,-0.455081 -0.539748,-0.169333 -1.111247,-0.169333 -0.402165,0 -0.825497,0.105833 -0.423332,0.09525 -0.783164,0.306915 -0.349249,0.211666 -0.582082,0.550332 -0.222249,0.328082 -0.222249,0.793748 0,0.507998 0.232833,0.83608 0.232832,0.317499 0.613831,0.529158 0.380999,0.20109 0.867831,0.32809 0.486831,0.127 0.99483,0.24341 0.518581,0.11642 1.005413,0.254 0.486832,0.13758 0.867831,0.381 0.380999,0.23283 0.613831,0.60325 0.232833,0.35983 0.232833,0.93133 z"
         style="font-style:normal;font-variant:normal;font-weight:normal;font-stretch:normal;font-family:Anders;-inkscape-font-specification:Anders;stroke-width:0.264583;fill:#dd6b20;fill-opacity:1"
         id="path29" />
      <path
         d="m 58.215781,96.827028 q 0,0.0635 -0.05292,0.116416 -0.04233,0.04233 -0.105833,0.04233 h -5.206983 q -0.0635,0 -0.116417,-0.04233 -0.04233,-0.05292 -0.04233,-0.116416 0,-0.0635 0.04233,-0.105833 0.05292,-0.05292 0.116417,-0.05292 h 5.206983 q 0.0635,0 0.105833,0.05292 0.05292,0.04233 0.05292,0.105833 z m 0.05292,1.02658 q 0,0.0635 -0.05292,0.116416 -0.04233,0.05292 -0.105833,0.05292 h -2.455325 v 6.953226 q 0,0.0635 -0.05292,0.11642 -0.05292,0.0423 -0.116416,0.0423 -0.0635,0 -0.116416,-0.0423 -0.05292,-0.0423 -0.05292,-0.11642 v -6.953226 h -2.465908 q -0.0635,0 -0.116417,-0.05292 -0.04233,-0.05292 -0.04233,-0.116416 0,-0.0635 0.04233,-0.116416 0.04233,-0.0635 0.116417,-0.0635 h 5.259899 q 0.07408,0 0.116417,0.0635 0.04233,0.05292 0.04233,0.116416 z"
         style="font-style:normal;font-variant:normal;font-weight:normal;font-stretch:normal;font-family:Anders;-inkscape-font-specification:Anders;stroke-width:0.264583;fill:#dd6b20;fill-opacity:1"
         id="path31" />
      <path
         d="m 64.184742,104.97617 q 0,0.0635 -0.05292,0.11642 -0.04233,0.0423 -0.105833,0.0423 -0.126999,0 -0.158749,-0.10583 l -3.07974,-7.768147 -0.349249,0.899581 q 0.04233,0.08467 0.179916,0.423332 0.137583,0.338665 0.338665,0.83608 0.201083,0.486832 0.433916,1.090084 0.232832,0.59266 0.476248,1.20649 0.243416,0.61383 0.465665,1.19592 0.232833,0.58208 0.402166,1.03716 0.179916,0.45508 0.285749,0.74083 0.105833,0.27517 0.105833,0.28575 0,0.11642 -0.105833,0.14816 -0.02117,0 -0.03175,0.0106 -0.01058,0 -0.03175,0 -0.105833,0 -0.148166,-0.10583 l -2.539992,-6.413484 -2.465909,6.413484 q -0.04233,0.10583 -0.158749,0.10583 -0.02117,0 -0.03175,0 0,-0.0106 -0.02117,-0.0106 -0.105833,-0.0317 -0.105833,-0.15874 0,-0.0106 0.127,-0.34925 0.126999,-0.33867 0.328082,-0.87842 0.211666,-0.53975 0.476248,-1.23824 0.275166,-0.6985 0.550332,-1.42875 0.285749,-0.74083 0.560915,-1.460494 0.285749,-0.719665 0.507998,-1.312329 0.232833,-0.603248 0.391582,-1.005414 0.15875,-0.412749 0.201083,-0.529165 0.04233,-0.09525 0.15875,-0.09525 0.116416,0 0.148166,0.09525 0.04233,0.116416 0.201082,0.529165 0.169333,0.402166 0.402166,1.005414 0.232832,0.592664 0.518581,1.312329 0.296333,0.719664 0.582082,1.460494 0.296332,0.73025 0.571498,1.42875 0.285749,0.69849 0.497415,1.24883 0.211666,0.53974 0.338666,0.87841 0.137583,0.33867 0.137583,0.34925 z"
         style="font-style:normal;font-variant:normal;font-weight:normal;font-stretch:normal;font-family:Anders;-inkscape-font-specification:Anders;stroke-width:0.264583;fill:#dd6b20;fill-opacity:1"
         id="path33" />
      <path
         d="m 71.984614,104.96559 q 0,0.16933 -0.169333,0.16933 -0.08467,0 -0.127,-0.0635 l -5.820815,-8.096226 q -0.02117,-0.02117 -0.02117,-0.09525 0,-0.169332 0.158749,-0.169332 0.0635,0 0.127,0.07408 l 5.524482,7.683478 v -7.641145 q 0,-0.0635 0.04233,-0.105833 0.05292,-0.05292 0.116417,-0.05292 0.0635,0 0.105833,0.05292 0.05292,0.04233 0.05292,0.105833 z m -1.28058,0.0106 q 0,0.0635 -0.05292,0.11642 -0.05292,0.0423 -0.116417,0.0423 -0.08467,0 -0.126999,-0.0635 l -4.243903,-5.958399 v 5.852569 q 0,0.0635 -0.05292,0.11641 -0.05292,0.0529 -0.116416,0.0529 -0.169333,0 -0.169333,-0.16933 v -6.381734 q 0,-0.05292 0.05292,-0.105833 0.05292,-0.05292 0.105833,-0.05292 0.07408,0 0.137583,0.07408 0.07408,0.105833 0.306915,0.433916 0.232833,0.317499 0.571498,0.783164 0.338666,0.465657 0.740831,1.037157 0.402166,0.56092 0.814914,1.13242 0.412749,0.57149 0.793748,1.12182 0.391582,0.53975 0.687914,0.97367 0.306916,0.42333 0.486832,0.6985 0.179916,0.26458 0.179916,0.29633 z"
         style="font-style:normal;font-variant:normal;font-weight:normal;font-stretch:normal;font-family:Anders;-inkscape-font-specification:Anders;stroke-width:0.264583;fill:#dd6b20;fill-opacity:1"
         id="path35" />
      <path
         d="m 79.276491,104.98675 q 0,0.0635 -0.0635,0.10584 -0.05292,0.0423 -0.105833,0.0423 -0.08467,0 -0.127,-0.0635 l -2.846907,-3.97932 -1.566328,1.56633 v 2.24366 q 0,0.0635 -0.05292,0.11641 -0.05292,0.0423 -0.116416,0.0423 -0.0635,0 -0.116417,-0.0423 -0.05292,-0.0423 -0.05292,-0.11641 v -8.022146 q 0,-0.07408 0.05292,-0.116416 0.05292,-0.04233 0.116417,-0.04233 0.0635,0 0.116416,0.05292 0.05292,0.04233 0.05292,0.105833 v 3.894659 l 4.053403,-4.063991 q 0.05292,-0.05292 0.105833,-0.05292 0.0635,0 0.116417,0.0635 0.05292,0.05292 0.05292,0.105833 0,0.0635 -0.05292,0.116416 l -4.275653,4.286232 v 0.97366 q 0.04233,-0.0423 0.169332,-0.16933 0.127,-0.13758 0.285749,-0.30691 0.15875,-0.16934 0.338666,-0.34925 0.190499,-0.17992 0.349249,-0.32809 0.158749,-0.15874 0.275166,-0.25399 0.116416,-0.10584 0.148166,-0.10584 0.09525,0 0.148166,0.0635 0.0635,0.0953 0.306916,0.4445 0.253999,0.33867 0.582081,0.79375 0.338666,0.45508 0.709081,0.96308 0.370416,0.508 0.677331,0.9525 0.317499,0.43391 0.518582,0.74083 0.201083,0.29633 0.201083,0.33866 z"
         style="font-style:normal;font-variant:normal;font-weight:normal;font-stretch:normal;font-family:Anders;-inkscape-font-specification:Anders;stroke-width:0.264583;fill:#dd6b20;fill-opacity:1"
         id="path37" />
      <path
         d="m 87.912451,100.9016 q 0,0.87841 -0.338666,1.65099 -0.328082,0.77258 -0.89958,1.34408 -0.571498,0.5715 -1.344079,0.91017 -0.772581,0.32808 -1.650995,0.32808 -0.878414,0 -1.650995,-0.32808 -0.772581,-0.33867 -1.344079,-0.91017 -0.571498,-0.5715 -0.910164,-1.34408 -0.328082,-0.77258 -0.328082,-1.65099 0,-0.87842 0.328082,-1.650996 0.338666,-0.772581 0.910164,-1.344079 0.571498,-0.571499 1.344079,-0.899581 0.772581,-0.338665 1.650995,-0.338665 0.878414,0 1.650995,0.338665 0.772581,0.328082 1.344079,0.899581 0.571498,0.571498 0.89958,1.344079 0.338666,0.772576 0.338666,1.650996 z m -0.328082,0 q 0,-0.80433 -0.306916,-1.513413 -0.306916,-0.709082 -0.846664,-1.238247 -0.529165,-0.539748 -1.238246,-0.846664 -0.709081,-0.306915 -1.513412,-0.306915 -0.804331,0 -1.513412,0.306915 -0.709081,0.306916 -1.248829,0.846664 -0.529165,0.529165 -0.836081,1.238247 -0.306916,0.709083 -0.306916,1.513413 0,0.80433 0.306916,1.51341 0.306916,0.70908 0.836081,1.24883 0.539748,0.52916 1.248829,0.83608 0.709081,0.30692 1.513412,0.30692 0.804331,0 1.513412,-0.30692 0.709081,-0.30692 1.238246,-0.83608 0.539748,-0.53975 0.846664,-1.24883 0.306916,-0.70908 0.306916,-1.51341 z"
         style="font-style:normal;font-variant:normal;font-weight:normal;font-stretch:normal;font-family:Anders;-inkscape-font-specification:Anders;stroke-width:0.264583;fill:#dd6b20;fill-opacity:1"
         id="path39" />
      <path
         d="m 88.102923,104.71159 q 0,-0.14817 0.09525,-0.24342 0.105833,-0.10583 0.253999,-0.10583 0.148167,0 0.243416,0.10583 0.105833,0.0952 0.105833,0.24342 0,0.14816 -0.105833,0.254 -0.09525,0.0952 -0.243416,0.0952 -0.148166,0 -0.253999,-0.0952 -0.09525,-0.10584 -0.09525,-0.254 z"
         style="font-style:normal;font-variant:normal;font-weight:normal;font-stretch:normal;font-family:Anders;-inkscape-font-specification:Anders;stroke-width:0.264583;fill:#dd6b20;fill-opacity:1"
         id="path41" />
      <path
         d="m 90.38749,105.05025 q 0,0.0395 -0.02822,0.0621 -0.02822,0.0226 -0.06209,0.0226 -0.03387,0 -0.06209,-0.0226 -0.02258,-0.0282 -0.02258,-0.0621 v -4.34622 q 0,-0.0339 0.02258,-0.0564 0.02822,-0.0282 0.06209,-0.0282 0.03387,0 0.06209,0.0226 0.02822,0.0226 0.02822,0.0621 z"
         style="font-size:5.64444px;fill:#dd6b20;fill-opacity:1"
         id="path43" />
      <path
         d="m 95.930326,102.87714 q 0,0.46849 -0.180622,0.88053 -0.174978,0.41205 -0.479777,0.71685 -0.3048,0.3048 -0.716844,0.48542 -0.412044,0.17498 -0.880533,0.17498 -0.468489,0 -0.880533,-0.17498 -0.412044,-0.18062 -0.716844,-0.48542 -0.304799,-0.3048 -0.485421,-0.71685 -0.174978,-0.41204 -0.174978,-0.88053 0,-0.46849 0.174978,-0.88053 0.180622,-0.41204 0.485421,-0.71684 0.3048,-0.3048 0.716844,-0.47978 0.412044,-0.18062 0.880533,-0.18062 0.468489,0 0.880533,0.18062 0.412044,0.17498 0.716844,0.47978 0.304799,0.3048 0.479777,0.71684 0.180622,0.41204 0.180622,0.88053 z m -0.174978,0 q 0,-0.42898 -0.163688,-0.80715 -0.163689,-0.37818 -0.451556,-0.6604 -0.282222,-0.28787 -0.660399,-0.45156 -0.378178,-0.16369 -0.807155,-0.16369 -0.428977,0 -0.807155,0.16369 -0.378177,0.16369 -0.666044,0.45156 -0.282222,0.28222 -0.445911,0.6604 -0.163688,0.37817 -0.163688,0.80715 0,0.42898 0.163688,0.80716 0.163689,0.37817 0.445911,0.66604 0.287867,0.28222 0.666044,0.44591 0.378178,0.16369 0.807155,0.16369 0.428977,0 0.807155,-0.16369 0.378177,-0.16369 0.660399,-0.44591 0.287867,-0.28787 0.451556,-0.66604 0.163688,-0.37818 0.163688,-0.80716 z"
         style="font-size:5.64444px;fill:#dd6b20;fill-opacity:1"
         id="path45" />
    </g>
  </g>
</svg>
